<svg version="1.2" xmlns="http://www.w3.org/2000/svg" viewBox="0 0 460 512.333" width="460" height="512.333"><style>.a{fill:#06283d}</style><path class="a" d="m31.4 195.6l76.4-29.5q0.6 2.5 1.2 5 0.7 2.5 1.4 5 0.8 2.4 1.5 4.9 0.8 2.4 1.6 4.9v51zm82.2 95.2v174.1q0 0.7 0 1.4l-87.5 44.2c-8.8 4.4-19.6 0.9-24.1-8q-0.5-0.9-0.8-1.9-0.4-1-0.6-2-0.3-1-0.4-2-0.1-1.1-0.1-2.1v-259.9l109.4 55q0.4 0.3 0.9 0.5 0.6 0.2 1.1 0.3 0.5 0.2 1 0.3 0.6 0.1 1.1 0.1z"/><path class="a" d="m12.9 202.7l4.1-1.6 96.5 48.6v29.2l-113.5-57.2v-1.7c0-8.2 5.5-15.1 12.9-17.3z"/><path class="a" d="m274.7 323.1v171.3c0 3.1 0.3 6 0.9 8.7q0.3 0.9 0.5 1.7 0.3 0.9 0.6 1.8 0.3 0.8 0.6 1.7 0.4 0.8 0.8 1.7l-128.2-27.7c-7.7-2-13.5-9.1-13.5-17.4v-230.9q2.2 3.6 4.5 7 2.3 3.5 4.6 6.9 2.4 3.4 4.9 6.8 2.5 3.3 5.1 6.5c10 12.6 21.3 24.6 33.9 35.8 11.9 10.6 25.2 20.7 40 30.1l-0.1 0.1c6.4 4.1 13.6 5.9 20.7 5.6q2.5-0.1 4.9-0.5 2.5-0.4 4.9-1.2 2.4-0.7 4.6-1.8 2.3-1.1 4.4-2.5 0.7-0.4 1.5-0.9 0.7-0.5 1.4-0.9 0.8-0.5 1.5-1 0.7-0.4 1.5-0.9z"/><path class="a" d="m381.7 173.9l53.9-20.7c9.2-3.6 19.6 1 23.1 10.2q0.3 0.8 0.6 1.6 0.2 0.8 0.3 1.6 0.2 0.8 0.3 1.6 0 0.8 0 1.7h0.1v230.5l-151.8-103.6q4.8-4.6 9.5-9.4 4.6-4.8 9-9.8 4.3-5 8.4-10.2 4.1-5.3 8-10.7c17.7-25 31-53.3 38.6-82.8zm61.8 274.4l-123.3 62.1c-8.8 4.5-19.6 0.9-24.1-7.9q-0.4-1-0.8-1.9-0.3-1-0.6-2-0.2-1.1-0.4-2.1-0.1-1-0.1-2.1v-148z"/><path class="a" d="m460 414.2v14.7c0 5.1-2.1 9.8-5.6 13l-160.2-109.3v-23.7q0.7-0.5 1.3-1.1 0.7-0.5 1.3-1.1 0.7-0.5 1.3-1 0.7-0.6 1.3-1.1z"/><path fill-rule="evenodd" class="a" d="m252.9 302.2c-2.2 1.6-5.2 1.9-7.7 0.3-26.7-17-49.1-37.4-66.7-59.5-24.3-30.5-39.6-64.3-44.9-96.9-5.3-33-0.3-64.7 16.1-90.5 6.5-10.2 14.8-19.5 24.9-27.6 23.1-18.5 49.6-28.2 76-28 25.4 0.2 50.4 9.7 72.1 29.4 7.6 6.9 14 14.9 19.2 23.5 17.7 29.1 21.5 66.2 13.7 103.8-12.1 58.9-51 114.1-102.7 145.5zm-7.3-243.5c31.3 0 56.7 25.4 56.7 56.7 0 31.3-25.4 56.7-56.7 56.7-31.4 0-56.7-25.4-56.7-56.7-0.1-31.3 25.3-56.7 56.7-56.7z"/></svg>