<?xml version="1.0" encoding="utf-8"?>
<!-- Generator: Adobe Illustrator 24.1.2, SVG Export Plug-In . SVG Version: 6.00 Build 0)  -->
<svg version="1.1" id="Шар_1" xmlns="http://www.w3.org/2000/svg" xmlns:xlink="http://www.w3.org/1999/xlink" x="0px" y="0px"
	 viewBox="0 0 64 64" style="enable-background:new 0 0 64 64;" xml:space="preserve">
<style type="text/css">
	.st0{fill:#FBB03B;}
	.st1{fill:#E29E35;}
	.st2{fill:none;}
</style>
<path class="st0" d="M32,7c-0.1,0-0.3,0-0.4-0.1c-0.1-0.1-0.2-0.1-0.3-0.2s-0.1-0.2-0.2-0.3C31,6.3,31,6.1,31,6V3
	c0-0.3,0.1-0.5,0.3-0.7C31.5,2.1,31.7,2,32,2c0.3,0,0.5,0.1,0.7,0.3C32.9,2.5,33,2.7,33,3v3c0,0.1,0,0.3-0.1,0.4
	c-0.1,0.1-0.1,0.2-0.2,0.3c-0.1,0.1-0.2,0.1-0.3,0.2S32.1,7,32,7z M50.4,14.6c-0.2,0-0.4-0.1-0.6-0.2c-0.1-0.1-0.2-0.2-0.3-0.4
	c-0.1-0.2-0.2-0.4-0.1-0.6c0.1-0.2,0.2-0.4,0.3-0.5l2.1-2.1c0.2-0.2,0.4-0.3,0.7-0.3c0.3,0,0.5,0.1,0.7,0.3s0.3,0.4,0.3,0.7
	s-0.1,0.5-0.3,0.7l-2.1,2.1c-0.1,0.1-0.1,0.1-0.2,0.1c0,0.1,0,0.1-0.1,0.1c-0.1,0.1-0.1,0.1-0.2,0.1C50.5,14.6,50.5,14.6,50.4,14.6z
	 M61,33h-3c-0.3,0-0.5-0.1-0.7-0.3C57.1,32.5,57,32.3,57,32c0-0.3,0.1-0.5,0.3-0.7c0.2-0.2,0.4-0.3,0.7-0.3h3c0.3,0,0.5,0.1,0.7,0.3
	c0.2,0.2,0.3,0.4,0.3,0.7c0,0.3-0.1,0.5-0.3,0.7C61.5,32.9,61.3,33,61,33z M52.5,53.5c-0.1,0-0.1,0-0.2,0c-0.1,0-0.1,0-0.2-0.1
	c-0.1,0-0.1,0-0.1-0.1c-0.1,0-0.1,0-0.2-0.1l-2.1-2.1c-0.2-0.2-0.3-0.4-0.3-0.7c0-0.3,0.1-0.5,0.3-0.7c0.2-0.2,0.4-0.3,0.7-0.3
	c0.3,0,0.5,0.1,0.7,0.3l2.1,2.1c0.1,0.1,0.2,0.3,0.3,0.5c0,0.2,0,0.4-0.1,0.6c-0.1,0.2-0.2,0.3-0.3,0.4
	C52.9,53.4,52.7,53.5,52.5,53.5z M32,62c-0.1,0-0.3,0-0.4-0.1c-0.1-0.1-0.2-0.1-0.3-0.2s-0.1-0.2-0.2-0.3C31,61.3,31,61.1,31,61v-3
	c0-0.3,0.1-0.5,0.3-0.7c0.2-0.2,0.4-0.3,0.7-0.3c0.3,0,0.5,0.1,0.7,0.3c0.2,0.2,0.3,0.4,0.3,0.7v3c0,0.1,0,0.3-0.1,0.4
	s-0.1,0.2-0.2,0.3s-0.2,0.1-0.3,0.2C32.3,62,32.1,62,32,62z M11.5,53.5c-0.2,0-0.4-0.1-0.6-0.2c-0.1-0.1-0.2-0.2-0.3-0.4
	c-0.1-0.2-0.1-0.4-0.1-0.6c0.1-0.2,0.2-0.4,0.3-0.5l2.1-2.1c0.2-0.2,0.4-0.3,0.7-0.3c0.3,0,0.5,0.1,0.7,0.3c0.2,0.2,0.3,0.4,0.3,0.7
	c0,0.3-0.1,0.5-0.3,0.7l-2.1,2.1c-0.1,0.1-0.1,0.1-0.2,0.1c0,0.1,0,0.1-0.1,0.1c-0.1,0.1-0.1,0.1-0.2,0.1
	C11.6,53.5,11.6,53.5,11.5,53.5z M6,33H3c-0.3,0-0.5-0.1-0.7-0.3C2.1,32.5,2,32.3,2,32c0-0.3,0.1-0.5,0.3-0.7C2.5,31.1,2.7,31,3,31
	h3c0.3,0,0.5,0.1,0.7,0.3C6.9,31.5,7,31.7,7,32c0,0.3-0.1,0.5-0.3,0.7C6.5,32.9,6.3,33,6,33z M13.6,14.6c-0.1,0-0.1,0-0.2,0
	c-0.1,0-0.1,0-0.2-0.1c-0.1,0-0.1,0-0.1-0.1c-0.1,0-0.1,0-0.2-0.1l-2.1-2.1c-0.2-0.2-0.3-0.4-0.3-0.7s0.1-0.5,0.3-0.7
	c0.2-0.2,0.4-0.3,0.7-0.3s0.5,0.1,0.7,0.3l2.1,2.1c0.1,0.1,0.2,0.3,0.3,0.5c0.1,0.2,0,0.4-0.1,0.6c-0.1,0.2-0.2,0.3-0.3,0.4
	C14,14.5,13.8,14.6,13.6,14.6z"/>
<path class="st0" d="M32,7c-0.1,0-0.3,0-0.4-0.1c-0.1-0.1-0.2-0.1-0.3-0.2s-0.1-0.2-0.2-0.3C31,6.3,31,6.1,31,6V3
	c0-0.3,0.1-0.5,0.3-0.7C31.5,2.1,31.7,2,32,2c0.3,0,0.5,0.1,0.7,0.3C32.9,2.5,33,2.7,33,3v3c0,0.1,0,0.3-0.1,0.4
	c-0.1,0.1-0.1,0.2-0.2,0.3c-0.1,0.1-0.2,0.1-0.3,0.2S32.1,7,32,7z M50.4,14.6c-0.2,0-0.4-0.1-0.6-0.2c-0.1-0.1-0.2-0.2-0.3-0.4
	c-0.1-0.2-0.2-0.4-0.1-0.6c0.1-0.2,0.2-0.4,0.3-0.5l2.1-2.1c0.2-0.2,0.4-0.3,0.7-0.3c0.3,0,0.5,0.1,0.7,0.3s0.3,0.4,0.3,0.7
	s-0.1,0.5-0.3,0.7l-2.1,2.1c-0.1,0.1-0.1,0.1-0.2,0.1c0,0.1,0,0.1-0.1,0.1c-0.1,0.1-0.1,0.1-0.2,0.1C50.5,14.6,50.5,14.6,50.4,14.6z
	 M61,33h-3c-0.3,0-0.5-0.1-0.7-0.3C57.1,32.5,57,32.3,57,32c0-0.3,0.1-0.5,0.3-0.7c0.2-0.2,0.4-0.3,0.7-0.3h3c0.3,0,0.5,0.1,0.7,0.3
	c0.2,0.2,0.3,0.4,0.3,0.7c0,0.3-0.1,0.5-0.3,0.7C61.5,32.9,61.3,33,61,33z M52.5,53.5c-0.1,0-0.1,0-0.2,0c-0.1,0-0.1,0-0.2-0.1
	c-0.1,0-0.1,0-0.1-0.1c-0.1,0-0.1,0-0.2-0.1l-2.1-2.1c-0.2-0.2-0.3-0.4-0.3-0.7c0-0.3,0.1-0.5,0.3-0.7c0.2-0.2,0.4-0.3,0.7-0.3
	c0.3,0,0.5,0.1,0.7,0.3l2.1,2.1c0.1,0.1,0.2,0.3,0.3,0.5c0,0.2,0,0.4-0.1,0.6c-0.1,0.2-0.2,0.3-0.3,0.4
	C52.9,53.4,52.7,53.5,52.5,53.5z M32,62c-0.1,0-0.3,0-0.4-0.1c-0.1-0.1-0.2-0.1-0.3-0.2s-0.1-0.2-0.2-0.3C31,61.3,31,61.1,31,61v-3
	c0-0.3,0.1-0.5,0.3-0.7c0.2-0.2,0.4-0.3,0.7-0.3c0.3,0,0.5,0.1,0.7,0.3c0.2,0.2,0.3,0.4,0.3,0.7v3c0,0.1,0,0.3-0.1,0.4
	s-0.1,0.2-0.2,0.3s-0.2,0.1-0.3,0.2C32.3,62,32.1,62,32,62z M11.5,53.5c-0.2,0-0.4-0.1-0.6-0.2c-0.1-0.1-0.2-0.2-0.3-0.4
	c-0.1-0.2-0.1-0.4-0.1-0.6c0.1-0.2,0.2-0.4,0.3-0.5l2.1-2.1c0.2-0.2,0.4-0.3,0.7-0.3c0.3,0,0.5,0.1,0.7,0.3c0.2,0.2,0.3,0.4,0.3,0.7
	c0,0.3-0.1,0.5-0.3,0.7l-2.1,2.1c-0.1,0.1-0.1,0.1-0.2,0.1c0,0.1,0,0.1-0.1,0.1c-0.1,0.1-0.1,0.1-0.2,0.1
	C11.6,53.5,11.6,53.5,11.5,53.5z M6,33H3c-0.3,0-0.5-0.1-0.7-0.3C2.1,32.5,2,32.3,2,32c0-0.3,0.1-0.5,0.3-0.7C2.5,31.1,2.7,31,3,31
	h3c0.3,0,0.5,0.1,0.7,0.3C6.9,31.5,7,31.7,7,32c0,0.3-0.1,0.5-0.3,0.7C6.5,32.9,6.3,33,6,33z M13.6,14.6c-0.1,0-0.1,0-0.2,0
	c-0.1,0-0.1,0-0.2-0.1c-0.1,0-0.1,0-0.1-0.1c-0.1,0-0.1,0-0.2-0.1l-2.1-2.1c-0.2-0.2-0.3-0.4-0.3-0.7s0.1-0.5,0.3-0.7
	c0.2-0.2,0.4-0.3,0.7-0.3s0.5,0.1,0.7,0.3l2.1,2.1c0.1,0.1,0.2,0.3,0.3,0.5c0.1,0.2,0,0.4-0.1,0.6c-0.1,0.2-0.2,0.3-0.3,0.4
	C14,14.5,13.8,14.6,13.6,14.6z M41.9,9c-0.1,0-0.3,0-0.4-0.1c-0.1-0.1-0.3-0.3-0.4-0.4C41,8.4,41,8.2,40.9,8.1c0-0.2,0-0.4,0.1-0.5
	l1.2-2.8c0.1-0.3,0.2-0.4,0.5-0.5c0.3-0.1,0.5-0.1,0.8,0c0.2,0.1,0.4,0.2,0.5,0.5c0.1,0.3,0.1,0.5,0,0.8l-1.1,2.8
	c-0.1,0.1-0.1,0.1-0.2,0.2s-0.1,0.1-0.2,0.2c-0.1,0.1-0.2,0.1-0.3,0.1C42.1,9,42,9,41.9,9z M56,23c-0.2,0-0.4-0.1-0.6-0.2
	c-0.2-0.1-0.3-0.3-0.4-0.6c0-0.2,0-0.4,0.1-0.6c0.1-0.2,0.3-0.4,0.5-0.5l2.8-1.1c0.3-0.1,0.5-0.1,0.8,0c0.2,0.1,0.4,0.3,0.5,0.5
	c0.1,0.3,0.1,0.5,0,0.8c-0.1,0.2-0.3,0.4-0.5,0.5L56.4,23c0,0,0,0-0.1,0c0,0,0,0-0.1,0c0,0,0,0-0.1,0C56.1,23,56.1,23,56,23z
	 M58.8,44.1C58.7,44.1,58.7,44.1,58.8,44.1c-0.2,0-0.2,0-0.2,0c0,0,0,0-0.1-0.1c0,0,0,0-0.1,0l-2.8-1.1c-0.2-0.1-0.4-0.3-0.5-0.6
	c-0.1-0.3-0.1-0.5,0-0.7c0.1-0.3,0.3-0.5,0.6-0.6c0.2-0.1,0.4-0.1,0.7,0l2.8,1.2c0.2,0.1,0.4,0.2,0.5,0.4c0.1,0.2,0.1,0.4,0.1,0.7
	c-0.1,0.2-0.2,0.4-0.4,0.6C59.3,44,59.1,44.1,58.8,44.1z M43.1,59.8c-0.1,0-0.2,0-0.3-0.1c-0.1,0-0.1,0-0.2-0.1
	c-0.1-0.1-0.2-0.1-0.3-0.2s-0.1-0.1-0.1-0.2L41,56.4c-0.1-0.3,0-0.5,0.1-0.7c0.1-0.3,0.2-0.5,0.5-0.6c0.3-0.1,0.5-0.1,0.7,0
	c0.3,0.1,0.5,0.3,0.6,0.5l1.1,2.8c0.1,0.1,0.1,0.3,0.1,0.5c0,0.1-0.1,0.3-0.2,0.4c-0.1,0.2-0.2,0.3-0.3,0.4
	C43.5,59.8,43.3,59.8,43.1,59.8z M20.9,59.8c-0.1,0-0.3,0-0.5-0.1c-0.1-0.1-0.2-0.2-0.3-0.3c-0.1-0.2-0.2-0.4-0.2-0.5
	c0-0.2,0-0.4,0.1-0.5l1.1-2.8c0.1-0.2,0.3-0.4,0.6-0.5c0.3-0.1,0.5-0.1,0.7,0c0.3,0.1,0.5,0.3,0.6,0.5c0.1,0.3,0.1,0.5,0,0.8
	l-1.2,2.8c0,0.1,0,0.1-0.1,0.2c-0.1,0.1-0.1,0.1-0.2,0.2c-0.1,0.1-0.2,0.1-0.3,0.2C21.1,59.8,21,59.8,20.9,59.8z M5.2,44.1
	c-0.2,0-0.4-0.1-0.6-0.2c-0.2-0.1-0.3-0.3-0.4-0.6c0-0.2,0-0.4,0.1-0.7c0.1-0.2,0.3-0.3,0.5-0.4L7.6,41c0.3-0.1,0.5-0.1,0.8,0
	c0.2,0.1,0.4,0.3,0.5,0.6c0.1,0.3,0.1,0.5,0,0.7c-0.1,0.3-0.3,0.5-0.5,0.6L5.6,44c-0.1,0-0.1,0-0.1,0.1c0,0,0,0-0.1,0
	C5.4,44.1,5.4,44.1,5.2,44.1C5.3,44.1,5.3,44.1,5.2,44.1z M8,23.1C7.9,23.1,7.9,23.1,8,23.1C7.8,23,7.8,23,7.8,23
	c-0.1,0-0.1,0-0.1,0c-0.1,0-0.1,0-0.1,0l-2.8-1.2c-0.3-0.1-0.4-0.2-0.5-0.5c-0.1-0.3-0.1-0.5,0-0.8c0.1-0.2,0.3-0.4,0.5-0.5
	c0.3-0.1,0.5-0.1,0.8,0l2.8,1.1c0.2,0.1,0.4,0.3,0.5,0.5C9,21.8,9,22,9,22.3c-0.1,0.2-0.2,0.4-0.4,0.5C8.4,23,8.2,23.1,8,23.1z
	 M22,9c-0.1,0-0.1,0-0.2-0.1c-0.1,0-0.2,0-0.3-0.1s-0.1-0.1-0.2-0.2c-0.1-0.1-0.1-0.1-0.2-0.2L20,5.6c-0.1-0.3-0.1-0.5,0-0.8
	c0.1-0.2,0.3-0.4,0.5-0.5c0.3-0.1,0.5-0.1,0.8,0c0.2,0.1,0.4,0.3,0.5,0.5L23,7.6c0.1,0.1,0.1,0.3,0,0.5c0,0.1,0,0.3-0.1,0.4
	c-0.1,0.1-0.3,0.3-0.4,0.4C22.4,9,22.2,9,22,9z"/>
<path class="st0" d="M41.9,9c-0.1,0-0.3,0-0.4-0.1c-0.1-0.1-0.3-0.3-0.4-0.4C41,8.4,41,8.2,40.9,8.1c0-0.2,0-0.4,0.1-0.5l1.2-2.8
	c0.1-0.3,0.2-0.4,0.5-0.5c0.3-0.1,0.5-0.1,0.8,0c0.2,0.1,0.4,0.2,0.5,0.5c0.1,0.3,0.1,0.5,0,0.8l-1.1,2.8c-0.1,0.1-0.1,0.1-0.2,0.2
	s-0.1,0.1-0.2,0.2c-0.1,0.1-0.2,0.1-0.3,0.1C42.1,9,42,9,41.9,9z M56,23c-0.2,0-0.4-0.1-0.6-0.2c-0.2-0.1-0.3-0.3-0.4-0.6
	c0-0.2,0-0.4,0.1-0.6c0.1-0.2,0.3-0.4,0.5-0.5l2.8-1.1c0.3-0.1,0.5-0.1,0.8,0c0.2,0.1,0.4,0.3,0.5,0.5c0.1,0.3,0.1,0.5,0,0.8
	c-0.1,0.2-0.3,0.4-0.5,0.5L56.4,23c0,0,0,0-0.1,0c0,0,0,0-0.1,0c0,0,0,0-0.1,0C56.1,23,56.1,23,56,23z M58.8,44.1
	C58.7,44.1,58.7,44.1,58.8,44.1c-0.2,0-0.2,0-0.2,0c0,0,0,0-0.1-0.1c0,0,0,0-0.1,0l-2.8-1.1c-0.2-0.1-0.4-0.3-0.5-0.6
	c-0.1-0.3-0.1-0.5,0-0.7c0.1-0.3,0.3-0.5,0.6-0.6c0.2-0.1,0.4-0.1,0.7,0l2.8,1.2c0.2,0.1,0.4,0.2,0.5,0.4c0.1,0.2,0.1,0.4,0.1,0.7
	c-0.1,0.2-0.2,0.4-0.4,0.6C59.3,44,59.1,44.1,58.8,44.1z M43.1,59.8c-0.1,0-0.2,0-0.3-0.1c-0.1,0-0.1,0-0.2-0.1
	c-0.1-0.1-0.2-0.1-0.3-0.2s-0.1-0.1-0.1-0.2L41,56.4c-0.1-0.3,0-0.5,0.1-0.7c0.1-0.3,0.2-0.5,0.5-0.6c0.3-0.1,0.5-0.1,0.7,0
	c0.3,0.1,0.5,0.3,0.6,0.5l1.1,2.8c0.1,0.1,0.1,0.3,0.1,0.5c0,0.1-0.1,0.3-0.2,0.4c-0.1,0.2-0.2,0.3-0.3,0.4
	C43.5,59.8,43.3,59.8,43.1,59.8z M20.9,59.8c-0.1,0-0.3,0-0.5-0.1c-0.1-0.1-0.2-0.2-0.3-0.3c-0.1-0.2-0.2-0.4-0.2-0.5
	c0-0.2,0-0.4,0.1-0.5l1.1-2.8c0.1-0.2,0.3-0.4,0.6-0.5c0.3-0.1,0.5-0.1,0.7,0c0.3,0.1,0.5,0.3,0.6,0.5c0.1,0.3,0.1,0.5,0,0.8
	l-1.2,2.8c0,0.1,0,0.1-0.1,0.2c-0.1,0.1-0.1,0.1-0.2,0.2c-0.1,0.1-0.2,0.1-0.3,0.2C21.1,59.8,21,59.8,20.9,59.8z M5.2,44.1
	c-0.2,0-0.4-0.1-0.6-0.2c-0.2-0.1-0.3-0.3-0.4-0.6c0-0.2,0-0.4,0.1-0.7c0.1-0.2,0.3-0.3,0.5-0.4L7.6,41c0.3-0.1,0.5-0.1,0.8,0
	c0.2,0.1,0.4,0.3,0.5,0.6c0.1,0.3,0.1,0.5,0,0.7c-0.1,0.3-0.3,0.5-0.5,0.6L5.6,44c-0.1,0-0.1,0-0.1,0.1c0,0,0,0-0.1,0
	C5.4,44.1,5.4,44.1,5.2,44.1C5.3,44.1,5.3,44.1,5.2,44.1z M8,23.1C7.9,23.1,7.9,23.1,8,23.1C7.8,23,7.8,23,7.8,23
	c-0.1,0-0.1,0-0.1,0c-0.1,0-0.1,0-0.1,0l-2.8-1.2c-0.3-0.1-0.4-0.2-0.5-0.5c-0.1-0.3-0.1-0.5,0-0.8c0.1-0.2,0.3-0.4,0.5-0.5
	c0.3-0.1,0.5-0.1,0.8,0l2.8,1.1c0.2,0.1,0.4,0.3,0.5,0.5C9,21.8,9,22,9,22.3c-0.1,0.2-0.2,0.4-0.4,0.5C8.4,23,8.2,23.1,8,23.1z
	 M22,9c-0.1,0-0.1,0-0.2-0.1c-0.1,0-0.2,0-0.3-0.1s-0.1-0.1-0.2-0.2c-0.1-0.1-0.1-0.1-0.2-0.2L20,5.6c-0.1-0.3-0.1-0.5,0-0.8
	c0.1-0.2,0.3-0.4,0.5-0.5c0.3-0.1,0.5-0.1,0.8,0c0.2,0.1,0.4,0.3,0.5,0.5L23,7.6c0.1,0.1,0.1,0.3,0,0.5c0,0.1,0,0.3-0.1,0.4
	c-0.1,0.1-0.3,0.3-0.4,0.4C22.4,9,22.2,9,22,9z"/>
<path class="st0" d="M32,55C19.3,55,9,44.7,9,32S19.3,9,32,9s23,10.3,23,23S44.7,55,32,55z"/>
<path class="st1" d="M49.7,17.3c0.2,0.6,0.4,1.2,0.5,1.9c0.2,0.6,0.4,1.2,0.5,1.9c0.1,0.7,0.1,1.3,0.2,1.9c0.1,0.7,0.1,1.3,0.1,2
	c0,12.7-10.3,23-23,23c-7.1,0-13.4-3.2-17.7-8.3C13.5,48.6,22,55,32,55c12.7,0,23-10.3,23-23c0-1.3-0.1-2.7-0.3-4
	c-0.3-1.3-0.6-2.5-1.1-3.8c-0.5-1.3-1-2.5-1.6-3.7C51.3,19.4,50.6,18.3,49.7,17.3z"/>
<path class="st2" d="M32,55C19.3,55,9,44.7,9,32S19.3,9,32,9s23,10.3,23,23S44.7,55,32,55z"/>
<path class="st2" d="M31.5,54.4C19.1,54.4,9,44.3,9,31.9S19.1,9.4,31.5,9.4S54,19.5,54,31.9S43.9,54.4,31.5,54.4z"/>
</svg>
