<svg version="1.1" id="Layer_1" xmlns="http://www.w3.org/2000/svg" xmlns:xlink="http://www.w3.org/1999/xlink" x="0px" y="0px"
	 width="100%" viewBox="0 0 700 700" enable-background="new 0 0 700 700" xml:space="preserve">
<path fill="#47704C" opacity="1.000000" stroke="none" 
	d="
M1.000002,353.000000 
	C1.000000,235.697601 1.000000,118.395195 1.000000,1.046399 
	C234.240875,1.046399 467.481781,1.046399 701.000000,1.046399 
	C701.000000,195.356567 701.000000,389.713257 700.722656,584.271484 
	C696.397949,561.293335 685.081177,542.189758 667.894775,526.054810 
	C667.602356,525.453247 667.290710,525.185120 666.975464,524.971619 
	C666.971985,525.026245 667.081177,525.034180 667.014404,524.749756 
	C666.620239,524.283020 666.292786,524.100708 665.965698,523.976257 
	C665.965942,524.034119 666.081604,524.034668 666.014832,523.750000 
	C665.620483,523.283081 665.292969,523.100769 664.970703,522.970337 
	C664.976013,523.022278 665.079895,523.012390 664.977417,522.684082 
	C663.572754,521.545349 662.270630,520.734924 660.974915,519.973145 
	C660.981323,520.021729 661.078613,520.009644 660.972534,519.673340 
	C658.179199,517.927307 655.492004,516.517517 652.463501,515.022217 
	C641.189636,508.591614 629.643494,504.050354 616.945312,502.789246 
	C612.564270,502.354156 608.204407,501.705078 603.766724,500.713898 
	C602.711182,500.183380 601.723877,500.013428 600.736511,500.013336 
	C468.133118,500.000946 335.529755,499.998169 202.926392,500.041077 
	C201.598312,500.041504 200.270432,500.653625 198.971985,500.994751 
	C199.001495,501.009277 199.022491,500.946930 198.644882,500.987335 
	C197.130249,501.351807 195.993225,501.675873 194.507233,502.036133 
	C182.198792,506.652283 179.659149,516.067993 182.305923,527.074219 
	C183.571625,532.337402 188.659454,539.404663 196.151352,539.429688 
	C198.017517,540.223694 199.709503,541.029175 201.401749,541.029785 
	C334.632172,541.075745 467.862640,541.059448 601.093079,541.038025 
	C603.087280,541.037659 605.081543,540.913147 607.460938,540.886047 
	C608.876953,540.979614 609.907898,541.033691 611.129272,541.429932 
	C613.894775,542.207642 616.469666,542.643127 619.033203,543.025146 
	C619.021790,542.971619 618.914612,542.993530 619.046265,543.335754 
	C620.134583,543.811035 621.091309,543.944092 622.036987,544.021545 
	C622.025940,543.965881 621.914368,543.986877 622.025635,544.300171 
	C622.767639,544.769653 623.398438,544.925781 624.019104,545.037964 
	C624.008972,544.994019 623.920898,545.013855 624.040039,545.354858 
	C625.449707,546.157654 626.740112,546.619507 628.022339,547.032288 
	C628.014160,546.983215 627.915894,546.999146 628.025818,547.312378 
	C628.766602,547.777832 629.397400,547.929932 630.017822,548.040527 
	C630.007324,547.998901 629.924011,548.019409 630.035767,548.352539 
	C631.387756,549.128906 632.627991,549.572144 634.078430,550.285278 
	C658.807983,566.813171 668.614563,596.260010 657.457581,622.582947 
	C646.774475,647.787781 620.778076,665.418274 590.438965,660.110229 
	C571.525146,656.090088 557.502319,646.025452 548.615112,629.163818 
	C543.454773,619.373169 541.585388,608.765503 540.933472,597.806152 
	C540.520752,590.867493 536.321106,585.539795 530.160278,583.553467 
	C523.700867,581.470947 516.379272,579.151978 509.677368,584.897400 
	C503.361450,588.515625 501.565277,595.066772 501.382751,600.671387 
	C501.108612,609.089966 502.454681,617.849304 504.755066,625.999939 
	C508.772217,640.233337 515.004700,653.547485 524.903137,664.944946 
	C534.937744,676.499146 546.524780,685.826416 560.829285,692.210205 
	C561.705078,692.699036 562.376099,692.889771 563.034302,693.026306 
	C563.021484,692.972168 562.913025,692.996948 563.056763,693.344971 
	C568.483276,695.155029 573.766052,696.617188 579.034302,698.026550 
	C579.019836,697.973816 578.914062,698.001953 579.072876,698.350586 
	C580.491516,698.747681 581.751343,698.796204 583.412903,698.904724 
	C586.044922,699.282166 588.275085,699.599548 590.615479,700.083984 
	C590.862061,700.484314 590.953491,700.733887 591.000000,701.000000 
	C394.333313,701.000000 197.666656,701.000000 1.000000,701.000000 
	C1.000000,672.894348 1.000000,644.912231 1.314897,616.552856 
	C4.270742,623.917419 8.963379,627.603027 16.911619,627.989685 
	C19.959337,628.138000 23.020760,627.982239 26.075468,628.012512 
	C58.875191,628.337769 91.674690,628.686279 124.474686,628.979553 
	C127.245842,629.004272 130.886642,629.736450 132.629547,628.312012 
	C137.735336,624.139282 144.569931,622.669250 146.004181,613.344910 
	C148.291504,598.474548 141.286453,586.990601 126.513161,586.990173 
	C91.382614,586.989075 56.251511,587.098755 21.121902,586.917419 
	C11.707809,586.868774 4.727376,590.004333 1.000000,599.000000 
	C1.000000,520.976685 1.000000,442.953339 1.264526,364.584045 
	C4.727178,371.005615 8.863494,376.727936 17.173656,378.429047 
	C18.405874,378.861633 19.399614,378.991302 20.393358,378.991333 
	C184.206863,378.996643 348.020386,378.994690 511.833893,378.955048 
	C513.216248,378.954712 514.598450,378.440857 516.365234,378.122314 
	C520.816162,377.707306 525.038269,377.907257 528.917297,376.849457 
	C537.422852,374.529999 545.754639,371.573364 554.502808,368.896759 
	C555.593750,368.604156 556.339294,368.291687 557.026611,367.968506 
	C556.968445,367.957794 556.945801,368.073944 557.342590,368.052582 
	C560.851074,366.344788 563.962708,364.658325 567.020630,362.969299 
	C566.966919,362.966766 566.960754,363.074188 567.346680,363.061157 
	C569.179871,362.022888 570.627136,360.997711 572.029175,359.975525 
	C571.983887,359.978516 571.989258,360.069092 572.281677,360.055634 
	C572.992065,359.589569 573.410034,359.136963 574.101318,358.425964 
	C577.713684,355.649872 581.052734,353.132111 584.481323,350.441650 
	C584.946777,349.920166 585.322632,349.571381 586.012268,349.067322 
	C588.211609,346.997345 590.097107,345.082550 592.336426,343.106445 
	C594.485474,341.017670 596.280701,338.990234 598.017578,336.960754 
	C597.959229,336.958679 597.953674,337.075287 598.316406,337.052795 
	C599.139038,336.353638 599.598877,335.676941 600.026855,334.999725 
	C599.995056,334.999207 600.007568,335.061646 600.338257,334.969727 
	C601.136902,333.901062 601.604858,332.924286 602.011719,331.952454 
	C601.950623,331.957397 601.958862,332.079742 602.249817,332.022339 
	C602.719727,331.631714 602.898621,331.298523 603.025024,330.969788 
	C602.972595,330.974304 602.980774,331.079315 603.304749,330.978271 
	C603.776794,330.232208 603.924805,329.587219 604.010010,328.948364 
	C603.947144,328.954529 603.957825,329.080353 604.249756,329.022156 
	C604.721130,328.629211 604.900513,328.294403 605.021912,327.963745 
	C604.963867,327.967865 604.970947,328.084045 605.293335,327.971039 
	C605.833374,327.218567 606.051086,326.579071 606.490601,325.723999 
	C607.496643,324.036316 608.280884,322.564240 609.432129,321.056458 
	C610.093506,320.910095 610.545288,320.885681 610.659851,320.676483 
	C619.963867,303.697296 625.725769,285.679718 625.975281,266.192902 
	C626.061707,259.444885 625.929382,252.602585 624.918152,245.952164 
	C623.117065,234.106613 620.553528,222.379852 614.102295,211.561584 
	C613.369995,210.430557 612.674500,209.678482 611.972900,208.980316 
	C611.966797,209.034225 612.074463,209.047516 612.052917,208.660400 
	C611.315674,206.352753 610.956482,204.179047 609.809998,202.564407 
	C607.420898,199.199646 604.615479,196.130569 601.950073,192.979401 
	C601.919128,193.018799 601.996704,193.082291 601.872192,193.008270 
	C601.597351,192.818466 601.450134,192.698715 601.209717,192.205612 
	C593.219604,182.777817 585.203674,173.850601 574.929382,166.995926 
	C573.973877,166.028580 572.961060,165.476761 571.951843,164.985748 
	C571.955505,165.046539 572.077209,165.040649 572.050354,164.669556 
	C571.649902,163.844360 571.367371,163.223175 570.888489,162.962112 
	C566.229431,160.422104 561.537598,157.942352 556.485229,155.225067 
	C548.515076,151.952911 541.035706,148.412582 532.110107,149.103302 
	C521.878418,148.431595 512.032410,147.808350 501.742310,147.110916 
	C496.387634,147.768188 491.477051,148.499649 486.152985,149.231735 
	C482.702362,149.473785 479.540955,149.260086 476.653320,150.048828 
	C470.099365,151.839005 463.196289,153.067566 457.871277,158.597076 
	C456.210938,159.599625 454.893188,160.407639 453.216003,161.197540 
	C448.542969,163.787323 444.229401,166.395203 439.961853,169.006195 
	C440.007812,169.009323 440.014313,168.917404 439.669678,168.941223 
	C438.188995,169.975998 437.052917,170.986969 435.961121,172.001038 
	C436.005371,172.004105 436.011658,171.915604 435.728943,171.977051 
	C435.269287,172.363556 435.092346,172.688599 434.963287,173.013519 
	C435.011169,173.013412 435.011353,172.917679 434.658997,172.938690 
	C432.509949,174.639679 430.713226,176.319672 428.961670,178.002777 
	C429.006836,178.005920 429.013336,177.915588 428.732605,177.977432 
	C428.273376,178.361069 428.094910,178.682877 427.960632,179.004654 
	C428.004822,179.004623 428.004913,178.916245 427.726501,178.983124 
	C427.270538,179.371613 427.093018,179.693207 426.965057,180.014709 
	C427.014648,180.014633 427.014954,179.915466 426.734772,179.981110 
	C426.274841,180.369034 426.095093,180.691299 425.964172,181.013458 
	C426.013062,181.013367 426.013306,180.915649 425.730774,180.977005 
	C425.270660,181.362869 425.093140,181.687363 424.963623,182.011795 
	C425.011688,182.011719 425.011932,181.915588 424.729523,181.977295 
	C424.269958,182.363663 424.092804,182.688293 423.960449,183.009644 
	C424.005310,183.006348 423.998962,182.916611 423.672119,183.017731 
	C417.895782,188.726227 412.463898,194.346115 409.989868,202.030945 
	C410.042145,202.035522 410.052521,201.931076 409.847961,202.148468 
	C409.297241,203.555969 408.951050,204.746078 408.319641,206.219849 
	C402.700348,215.341064 398.413940,224.587524 396.587280,235.100311 
	C391.911774,246.091782 392.788330,257.380798 393.318817,268.625916 
	C393.339752,269.069733 394.267212,269.470825 394.870422,270.244385 
	C397.610321,273.714783 400.252045,276.832642 402.910400,279.958344 
	C402.927063,279.966217 402.924225,279.990112 403.121887,280.316467 
	C404.489410,281.175018 405.677490,281.670868 406.825684,282.246277 
	C410.081268,283.877838 417.660645,283.171539 420.021942,280.976196 
	C419.977295,280.967896 419.959808,281.057037 420.341492,281.046173 
	C421.937653,280.320862 423.152161,279.606445 424.618225,278.716156 
	C426.780426,275.984833 428.690979,273.429352 431.042694,270.926727 
	C435.518097,266.479584 433.802063,261.103943 433.890137,255.596069 
	C434.700012,251.909744 435.435547,248.620789 436.056824,245.310364 
	C436.457855,243.173325 436.691467,241.004852 437.048798,238.494614 
	C444.802338,217.945938 457.722626,202.510208 477.790314,193.633621 
	C481.544739,191.972900 485.379547,190.493790 489.536835,188.915314 
	C493.109009,188.241653 496.321594,187.583557 499.521973,186.920959 
	C499.509735,186.916473 499.483704,186.916397 499.692688,187.135544 
	C500.295135,187.238510 500.688568,187.122345 501.031250,186.988754 
	C500.980438,186.971329 500.944855,187.072647 501.416595,187.049225 
	C508.133148,187.279800 514.377930,187.533768 521.050415,187.856415 
	C533.502686,189.667892 544.105042,194.880905 554.385620,201.504517 
	C555.065552,202.142868 555.558594,202.611908 556.046204,203.023865 
	C556.040833,202.966782 555.926575,202.976242 555.985413,203.260406 
	C556.369019,203.725281 556.693726,203.905991 557.018188,204.034088 
	C557.017883,203.981491 556.912659,203.981506 556.982971,204.254974 
	C557.366028,204.713501 557.678833,204.898544 557.995728,205.052368 
	C557.999939,205.021179 557.940002,205.040466 557.953979,205.407059 
	C560.639954,208.207840 563.311890,210.642029 565.987244,213.037766 
	C565.990601,212.999298 565.913635,212.992844 565.979004,213.271637 
	C566.365295,213.729095 566.686096,213.907745 567.007019,214.039566 
	C567.007080,213.992752 566.913513,213.992294 566.979736,214.272583 
	C567.369446,214.730957 567.692932,214.909012 568.013428,215.039215 
	C568.010437,214.991364 567.914673,214.997086 567.980835,215.272949 
	C568.375854,215.651917 568.704773,215.755035 569.298584,216.077347 
	C572.694275,222.192596 576.129395,227.949890 578.894043,234.012924 
	C585.069092,247.555313 587.277283,261.176758 583.649231,276.363556 
	C580.796692,288.303833 576.010376,298.961029 569.132629,308.464630 
	C560.614624,320.234955 549.106995,328.979156 534.977905,333.680176 
	C521.394592,337.461670 507.613800,337.036713 493.827850,337.031982 
	C337.563385,336.978546 181.298889,336.994476 25.034431,337.037872 
	C23.023645,337.038422 21.013025,337.637817 18.593168,337.994873 
	C13.805003,337.716461 10.422024,339.457123 7.960079,343.007294 
	C8.005158,343.008392 8.007564,342.918243 7.643597,342.934540 
	C6.825675,343.640808 6.371721,344.330750 5.969254,345.019714 
	C6.020743,345.018677 6.019372,344.915710 5.740386,344.984131 
	C5.279301,345.373505 5.097203,345.694458 4.964251,346.013763 
	C5.013396,346.012146 5.010583,345.913849 4.672020,346.042847 
	C4.225617,346.634735 4.117777,347.097656 4.043184,347.544281 
	C4.076432,347.528015 4.045631,347.460724 3.770258,347.714111 
	C3.304399,348.661987 3.113913,349.356415 2.977929,350.037598 
	C3.032431,350.024292 3.006751,349.915070 2.673394,350.036682 
	C1.893360,351.105560 1.446682,352.052765 1.000002,353.000000 
M446.034363,425.034332 
	C446.034363,425.034332 446.034943,424.922180 445.454895,425.037537 
	C445.277008,425.370300 445.099152,425.703064 445.035706,426.035126 
	C445.035706,426.035126 445.036163,425.920715 444.468201,426.051453 
	C444.286194,426.377563 444.104187,426.703644 444.017639,427.019653 
	C444.017639,427.019653 444.008118,426.924133 443.363495,427.128754 
	C443.218170,427.772430 443.072845,428.416138 443.048096,429.036713 
	C443.048096,429.036713 443.026367,428.915924 442.345551,429.139069 
	C441.952667,430.831299 441.559784,432.523499 441.061035,435.197815 
	C441.044250,437.649658 440.793060,440.127014 441.057068,442.548248 
	C441.705292,448.493164 444.109192,453.408203 450.286652,456.580994 
	C451.844269,457.384644 453.401886,458.188263 454.937622,458.960144 
	C454.937622,458.960144 454.910187,458.987244 455.344574,459.755463 
	C478.134064,459.835632 500.923615,459.957855 523.712830,459.906219 
	C525.319885,459.902588 526.924072,458.616699 529.140076,457.861542 
	C530.448853,456.924500 531.757629,455.987488 533.815918,454.984497 
	C539.432739,452.968689 543.440125,442.478607 540.969177,435.170044 
	C539.970337,433.088135 538.971497,431.006226 537.964294,429.035339 
	C537.964294,429.035339 538.075256,429.044830 538.027161,428.287628 
	C537.085815,424.597351 535.126038,422.037994 530.977844,422.029663 
	C530.977844,422.029663 531.081848,422.015259 530.822021,421.327637 
	C529.864258,421.199036 528.906433,421.070435 527.966797,421.047760 
	C527.966797,421.047760 528.072937,421.030975 527.476135,420.612732 
	C526.297241,420.391693 525.118408,420.170654 523.972351,420.044220 
	C523.972351,420.044220 524.067383,420.012482 523.559814,419.308563 
	C501.378876,419.250580 479.197937,419.192566 456.247925,418.977020 
	C454.138000,419.993103 452.028076,421.009216 450.027344,422.035736 
	C450.027344,422.035736 450.038849,421.926636 449.346558,421.946167 
	C448.538025,422.637939 447.729462,423.329712 447.027069,424.028320 
	C447.027069,424.028320 447.034912,423.922211 446.455231,424.037262 
	C446.277557,424.369812 446.099884,424.702332 446.034363,425.034332 
M584.453186,425.049683 
	C584.272888,425.368652 584.092651,425.687622 583.993713,425.998596 
	C583.993713,425.998596 583.985413,425.917328 583.340942,426.127533 
	C582.865417,427.088531 582.389832,428.049530 581.996521,428.999054 
	C581.996521,428.999054 581.984680,428.916840 581.366577,429.150391 
	C581.219360,429.779663 581.072144,430.408966 581.029968,431.017792 
	C581.029968,431.017792 581.010437,430.912567 580.637207,431.158020 
	C580.765930,431.481079 580.894653,431.804138 580.927856,432.784943 
	C578.355469,439.745178 579.264221,446.161865 584.014465,452.629883 
	C584.329712,453.111237 584.645020,453.592621 584.973694,454.006409 
	C584.973694,454.006409 584.905212,453.999023 585.064636,454.538605 
	C585.377319,454.723907 585.690063,454.909241 585.992371,455.024170 
	C585.992371,455.024170 585.921997,455.035156 586.187805,455.628326 
	C586.809875,455.781647 587.431946,455.934998 588.038086,455.956879 
	C588.038086,455.956879 587.906494,455.971405 588.070618,456.512482 
	C588.381042,456.706635 588.691528,456.900818 588.993164,457.021393 
	C588.993164,457.021393 588.919678,457.030701 589.212036,457.717804 
	C590.821472,458.175720 592.430847,458.633636 594.015320,458.980530 
	C594.015320,458.980530 593.904175,459.004974 594.350769,459.764648 
	C603.417114,459.841766 612.483459,459.963867 621.549683,459.951630 
	C623.058228,459.949585 624.566040,459.362762 626.647156,458.760315 
	C628.087952,457.900299 629.528809,457.040283 631.636597,456.060883 
	C632.119263,455.698486 632.601868,455.336121 632.971680,454.964691 
	C632.971680,454.964691 632.961548,455.077484 633.686890,455.022095 
	C634.483826,454.001770 635.280762,452.981445 635.958374,451.963470 
	C635.958374,451.963470 635.959412,452.082794 636.523499,451.949585 
	C636.708252,451.626923 636.893005,451.304291 636.995056,450.988861 
	C636.995056,450.988861 637.001953,451.071625 637.638611,450.858856 
	C637.783630,450.219269 637.928650,449.579681 637.952087,448.966217 
	C637.952087,448.966217 637.976868,449.088135 638.688293,448.772156 
	C641.887878,441.513367 642.269043,434.484528 636.978088,428.014587 
	C636.978088,428.014587 637.074768,428.023651 637.029968,427.304199 
	C633.971436,421.812714 628.945984,419.701385 622.081970,419.045715 
	C613.386230,419.078278 604.690430,419.110870 595.236938,418.992554 
	C593.129639,419.991943 591.022339,420.991333 589.000244,421.999817 
	C589.000244,421.999817 589.009338,421.914551 588.332642,421.966187 
	C587.527405,422.639679 586.722107,423.313202 585.999329,423.994934 
	C585.999329,423.994934 586.007263,423.912415 585.453979,424.050568 
	C585.273438,424.369354 585.092896,424.688141 585.006775,425.006805 
	C585.006775,425.006805 585.006897,424.912445 584.453186,425.049683 
M385.951660,455.950653 
	C385.951660,455.950653 385.952393,456.058838 386.620117,455.965424 
	C387.106750,455.637665 387.593384,455.309906 387.979034,454.972839 
	C387.979034,454.972839 387.968964,455.073792 388.697937,455.034088 
	C389.489868,454.012238 390.281799,452.990356 390.967957,451.975586 
	C390.967957,451.975586 390.974060,452.081421 391.672943,451.866699 
	C396.907074,444.483917 397.418182,437.896362 393.053314,430.583679 
	C389.695618,427.448792 386.337921,424.313904 382.467834,421.084442 
	C382.299347,421.042267 382.130890,421.000092 381.979828,421.032288 
	C381.979828,421.032288 382.054352,421.015717 381.552032,420.404877 
	C378.816864,419.921143 376.081970,419.016479 373.346466,419.014496 
	C274.179840,418.942047 175.013153,418.953491 75.846489,418.955536 
	C74.513474,418.955566 73.081436,418.674347 71.868484,419.063354 
	C69.488609,419.826630 67.230682,420.970123 64.985313,421.981049 
	C64.985313,421.981049 65.001495,421.915283 64.403618,421.574646 
	C63.661518,422.010590 62.919422,422.446533 61.776356,423.463104 
	C60.396229,424.856476 59.055012,426.291138 57.628624,427.635406 
	C53.544643,431.484222 52.517529,436.382843 53.365131,441.590668 
	C54.666950,449.589325 59.094349,455.443848 67.149536,459.590637 
	C69.292191,459.727234 71.434807,459.982574 73.577507,459.983215 
	C143.836823,460.004028 214.096222,459.942047 284.355438,460.028076 
	C313.969818,460.064301 343.583649,460.440582 373.198151,460.538910 
	C375.514069,460.546600 377.833221,459.580109 380.931885,458.939117 
	C381.187469,458.873871 381.443024,458.808655 382.120117,458.584290 
	C382.709686,458.127045 383.299255,457.669800 384.177216,457.069580 
	C384.177216,457.069580 384.424835,456.863922 384.833923,456.652893 
	C385.242584,456.418060 385.651215,456.183228 385.951660,455.950653 
M413.041443,587.018005 
	C342.740173,587.008789 272.438904,587.020508 202.137711,586.949707 
	C196.629074,586.944153 192.119843,589.464539 188.744278,593.031250 
	C182.412338,599.721741 183.450104,608.019958 185.711899,616.126648 
	C186.272751,618.136902 187.125946,620.262024 188.446396,621.826477 
	C192.173172,626.242249 196.633713,628.213623 202.926636,628.187744 
	C272.428406,627.902466 341.931793,628.015747 411.434692,627.967896 
	C413.297882,627.966614 415.160675,627.367004 417.742767,626.965515 
	C431.507477,620.980652 430.609894,605.283325 426.381653,595.947815 
	C423.996338,590.681274 418.600739,589.406311 413.041443,587.018005 
z"/>
<path fill="#27A4B9" opacity="1.000000" stroke="none" 
	d="
M535.165894,334.016144 
	C549.106995,328.979156 560.614624,320.234955 569.132629,308.464630 
	C576.010376,298.961029 580.796692,288.303833 583.649231,276.363556 
	C587.277283,261.176758 585.069092,247.555313 578.894043,234.012924 
	C576.129395,227.949890 572.694275,222.192596 569.229614,215.774994 
	C568.568726,215.167984 568.241699,215.082535 567.914673,214.997086 
	C567.914673,214.997086 568.010437,214.991364 568.074341,214.671600 
	C567.729980,214.231979 567.321777,214.112137 566.913513,213.992294 
	C566.913513,213.992294 567.007080,213.992752 567.109375,213.664978 
	C566.778931,213.222412 566.346313,213.107620 565.913635,212.992844 
	C565.913635,212.992844 565.990601,212.999298 566.206543,212.718872 
	C563.595032,209.972473 560.767517,207.506470 557.940002,205.040466 
	C557.940002,205.040466 557.999939,205.021179 558.170288,204.689651 
	C557.864624,204.232590 557.388672,204.107056 556.912659,203.981506 
	C556.912659,203.981506 557.017883,203.981491 557.074951,203.690247 
	C556.730225,203.258072 556.328369,203.117157 555.926575,202.976242 
	C555.926575,202.976242 556.040833,202.966782 555.953979,202.831467 
	C555.310974,202.242493 554.754883,201.788834 554.198730,201.335175 
	C544.105042,194.880905 533.502686,189.667892 520.848511,187.580902 
	C513.794189,187.182037 507.369537,187.127350 500.944855,187.072647 
	C500.944855,187.072647 500.980438,186.971329 500.641479,186.791031 
	C500.029602,186.712616 499.756653,186.814514 499.483704,186.916397 
	C499.483704,186.916397 499.509735,186.916473 499.340088,186.782730 
	C498.732178,186.562149 498.293915,186.475296 497.368103,186.320923 
	C489.951447,186.154907 482.924500,185.257019 476.109650,186.091492 
	C439.878296,190.527985 410.875946,221.802429 409.990570,258.956940 
	C409.848572,264.915405 408.574371,270.415802 404.516235,275.115570 
	C403.488037,276.306366 403.408936,278.316711 402.893738,279.950470 
	C400.252045,276.832642 397.610321,273.714783 394.851868,269.824219 
	C392.733337,257.501343 394.852325,246.217300 396.938507,234.931152 
	C398.413940,224.587524 402.700348,215.341064 407.992279,206.126099 
	C408.650940,204.476135 409.351746,203.203613 410.052551,201.931091 
	C410.052521,201.931076 410.042145,202.035522 410.330719,201.997009 
	C414.509613,196.869690 418.442169,191.812164 422.256134,186.666748 
	C423.060150,185.582047 423.429413,184.175095 423.998962,182.916611 
	C423.998962,182.916611 424.005310,183.006348 424.316864,183.073212 
	C424.756256,182.731903 424.884094,182.323746 425.011932,181.915588 
	C425.011932,181.915588 425.011688,182.011719 425.319946,182.075882 
	C425.756561,181.731918 425.884918,181.323776 426.013306,180.915649 
	C426.013306,180.915649 426.013062,181.013367 426.318207,181.072052 
	C426.753876,180.725632 426.884430,180.320557 427.014954,179.915466 
	C427.014954,179.915466 427.014648,180.014633 427.330933,180.074615 
	C427.766418,179.728470 427.885681,179.322357 428.004913,178.916245 
	C428.004913,178.916245 428.004822,179.004623 428.320984,179.102631 
	C428.762573,178.772278 428.887970,178.343933 429.013367,177.915588 
	C429.013336,177.915588 429.006836,178.005920 429.309143,178.135620 
	C431.411407,176.482758 433.211365,174.700226 435.011353,172.917679 
	C435.011353,172.917679 435.011169,173.013412 435.319977,173.077286 
	C435.756409,172.732635 435.884033,172.324127 436.011658,171.915604 
	C436.011658,171.915604 436.005371,172.004105 436.311462,172.138397 
	C437.749786,171.154251 438.882050,170.035828 440.014313,168.917404 
	C440.014313,168.917404 440.007812,169.009323 440.318939,169.127197 
	C444.945221,166.568604 449.260345,163.892136 453.575470,161.215668 
	C454.893188,160.407639 456.210938,159.599625 458.209595,158.563339 
	C468.115875,155.300430 477.341187,152.265778 486.566498,149.231110 
	C491.477051,148.499649 496.387634,147.768188 501.584595,147.301422 
	C501.772888,147.700134 501.650970,147.823318 501.583313,147.971283 
	C501.517609,148.115036 501.507568,148.284195 501.473053,148.442200 
	C503.719940,148.818726 505.984619,149.111450 508.210968,149.584518 
	C535.541016,155.391678 558.430969,168.703995 575.996094,190.537643 
	C596.519897,216.049011 605.002930,245.335190 600.605957,277.729523 
	C596.829285,305.553894 584.042908,328.925385 562.909485,347.763580 
	C545.220337,363.531555 524.870667,373.046661 501.405762,376.064819 
	C500.218018,376.217651 499.124268,377.101288 497.534119,377.763885 
	C494.584503,377.885101 492.087463,377.889008 489.590424,377.888885 
	C334.525299,377.880310 179.460144,377.870514 24.395012,377.871063 
	C21.908401,377.871063 19.421789,377.997925 16.935179,378.065582 
	C8.863494,376.727936 4.727178,371.005615 1.264526,364.119019 
	C1.000000,360.969391 1.000000,357.938812 1.260337,354.216339 
	C2.016036,352.321350 2.511398,351.118195 3.006756,349.915070 
	C3.006751,349.915070 3.032431,350.024292 3.362242,349.898804 
	C3.809913,349.002441 3.927772,348.231567 4.045631,347.460724 
	C4.045631,347.460724 4.076432,347.528015 4.405532,347.413635 
	C4.826615,346.837433 4.918598,346.375641 5.010582,345.913849 
	C5.010583,345.913849 5.013396,346.012146 5.314550,346.064270 
	C5.750260,345.716187 5.884816,345.315948 6.019372,344.915710 
	C6.019372,344.915710 6.020743,345.018677 6.326675,345.062347 
	C7.090928,344.376770 7.549248,343.647491 8.007565,342.918243 
	C8.007564,342.918243 8.005158,343.008392 8.334063,343.102051 
	C12.101314,341.685791 15.539660,340.175903 19.234165,338.805176 
	C19.671574,339.014526 19.852821,339.084656 20.151756,339.207092 
	C20.269445,339.259399 20.640377,339.269867 20.640377,339.269867 
	C20.640377,339.269867 20.980257,339.095062 21.443386,339.009827 
	C24.072891,338.910492 26.239265,338.884125 28.405640,338.884094 
	C189.401413,338.882294 350.397308,338.951538 511.392609,338.675751 
	C519.319641,338.662140 527.241577,335.638275 535.165894,334.016144 
z"/>
<path fill="#188BA6" opacity="1.000000" stroke="none" 
	d="
M591.468506,701.000000 
	C590.953491,700.733887 590.862061,700.484314 590.839233,699.848755 
	C592.497192,698.944824 594.007935,698.260925 595.590942,697.968933 
	C620.703674,693.337402 641.482605,681.142761 656.899414,660.911011 
	C675.740723,636.185242 682.723694,608.401184 675.027649,577.721863 
	C667.061890,545.967468 647.929932,523.186340 618.092041,510.135620 
	C608.046387,505.741760 596.757751,504.189728 586.502075,501.303467 
	C592.589600,501.229980 598.212280,501.191864 603.834900,501.153748 
	C608.204407,501.705078 612.564270,502.354156 616.945312,502.789246 
	C629.643494,504.050354 641.189636,508.591614 652.619568,515.332886 
	C655.770813,517.156006 658.424744,518.582825 661.078613,520.009644 
	C661.078613,520.009644 660.981323,520.021729 660.839172,520.337891 
	C662.157959,521.440186 663.618958,522.226257 665.079895,523.012390 
	C665.079895,523.012390 664.976013,523.022278 664.865479,523.353210 
	C665.197205,523.800964 665.639404,523.917847 666.081604,524.034668 
	C666.081604,524.034668 665.965942,524.034119 665.860229,524.359070 
	C666.196716,524.800720 666.638977,524.917419 667.081177,525.034180 
	C667.081177,525.034180 666.971985,525.026245 666.800537,525.305908 
	C667.044556,525.853088 667.459961,526.120728 667.875427,526.388306 
	C685.081177,542.189758 696.397949,561.293335 700.722656,584.736572 
	C701.000000,594.687561 701.000000,604.375122 700.732422,614.721069 
	C700.073669,617.763062 699.828674,620.181641 699.267334,622.524414 
	C695.935852,636.429993 690.345398,649.500916 681.395447,660.548340 
	C675.232910,668.155151 667.228760,674.269958 659.710083,681.065247 
	C658.900024,681.744019 658.427551,682.409058 657.959106,683.014771 
	C657.963196,682.955383 658.081970,682.962158 657.714844,682.890259 
	C654.212158,684.904114 651.076599,686.989929 647.954895,689.020874 
	C647.968811,688.966125 648.078674,688.992859 647.765137,688.739990 
	C646.948792,689.015076 646.445923,689.542969 645.953247,690.010681 
	C645.963379,689.950500 646.084045,689.969360 645.704102,689.866089 
	C645.027649,690.173340 644.731140,690.583984 644.458984,690.968933 
	C644.483215,690.943237 644.553101,690.953796 644.160400,690.764282 
	C643.157104,691.072510 642.546631,691.570190 641.952087,692.010742 
	C641.968079,691.953674 642.082642,691.984314 641.768127,691.794800 
	C640.035583,692.357300 638.617554,693.109375 636.848389,694.006470 
	C633.038513,695.267761 629.613342,696.505737 626.112793,697.470215 
	C621.439148,698.757996 616.707031,699.833374 612.000000,701.000000 
	C605.312378,701.000000 598.624695,701.000000 591.468506,701.000000 
z"/>
<path fill="#47704C" opacity="1.000000" stroke="none" 
	d="
M612.468628,701.000000 
	C616.707031,699.833374 621.439148,698.757996 626.112793,697.470215 
	C629.613342,696.505737 633.038513,695.267761 637.208252,693.997986 
	C639.307068,693.224365 640.694824,692.604370 642.082642,691.984314 
	C642.082642,691.984314 641.968079,691.953674 642.326843,691.992676 
	C643.308105,691.672363 643.930603,691.313110 644.553101,690.953796 
	C644.553101,690.953796 644.483215,690.943237 644.824158,690.944214 
	C645.471436,690.619934 645.777710,690.294678 646.084045,689.969360 
	C646.084045,689.969360 645.963379,689.950500 646.290771,689.989624 
	C647.105042,689.683472 647.591858,689.338196 648.078674,688.992859 
	C648.078674,688.992859 647.968811,688.966125 648.325562,688.947510 
	C651.815552,686.940002 654.948792,684.951050 658.081970,682.962158 
	C658.081970,682.962158 657.963196,682.955383 658.318665,682.996582 
	C659.132019,682.375732 659.589905,681.713684 660.047729,681.051575 
	C667.228760,674.269958 675.232910,668.155151 681.395447,660.548340 
	C690.345398,649.500916 695.935852,636.429993 699.267334,622.524414 
	C699.828674,620.181641 700.073669,617.763062 700.732422,615.189758 
	C701.000000,643.594849 701.000000,672.189636 701.000000,701.000000 
	C671.646118,701.000000 642.291748,701.000000 612.468628,701.000000 
z"/>
<path fill="#F9FCFD" opacity="1.000000" stroke="none" 
	d="
M1.000000,599.467590 
	C4.727376,590.004333 11.707809,586.868774 21.121902,586.917419 
	C56.251511,587.098755 91.382614,586.989075 126.513161,586.990173 
	C141.286453,586.990601 148.291504,598.474548 146.004181,613.344910 
	C144.569931,622.669250 137.735336,624.139282 132.629547,628.312012 
	C130.886642,629.736450 127.245842,629.004272 124.474686,628.979553 
	C91.674690,628.686279 58.875191,628.337769 26.075468,628.012512 
	C23.020760,627.982239 19.959337,628.138000 16.911619,627.989685 
	C8.963379,627.603027 4.270742,623.917419 1.314897,616.087891 
	C1.000000,610.645081 1.000000,605.290100 1.000000,599.467590 
M104.121399,626.892639 
	C111.093056,626.933044 118.067200,627.109497 125.035797,626.982300 
	C135.703583,626.787720 143.537643,619.622375 144.104935,609.792847 
	C144.784637,598.015564 138.557571,589.969299 127.086029,588.788269 
	C120.187706,588.078003 113.182144,588.409119 105.350426,588.182861 
	C97.384560,588.446594 89.419701,588.894165 81.452629,588.937927 
	C61.480156,589.047546 41.506668,588.963745 21.533606,588.978455 
	C10.009030,588.986938 2.172555,596.311096 2.022269,607.164551 
	C1.869243,618.215881 10.130408,626.903687 21.342403,626.939575 
	C48.637589,627.027039 75.933472,626.897034 104.121399,626.892639 
z"/>
<path fill="#D9ECF2" opacity="1.000000" stroke="none" 
	d="
M2.673399,350.036682 
	C2.511398,351.118195 2.016036,352.321350 1.260337,353.762238 
	C1.000000,354.000000 1.000000,353.500000 1.000002,353.250000 
	C1.446682,352.052765 1.893360,351.105560 2.673399,350.036682 
z"/>
<path fill="#27A3B9" opacity="1.000000" stroke="none" 
	d="
M586.037170,501.338867 
	C596.757751,504.189728 608.046387,505.741760 618.092041,510.135620 
	C647.929932,523.186340 667.061890,545.967468 675.027649,577.721863 
	C682.723694,608.401184 675.740723,636.185242 656.899414,660.911011 
	C641.482605,681.142761 620.703674,693.337402 595.590942,697.968933 
	C594.007935,698.260925 592.497192,698.944824 590.729065,699.681641 
	C588.275085,699.599548 586.044922,699.282166 583.203369,698.588379 
	C581.366089,698.142029 580.140076,698.071960 578.914062,698.001953 
	C578.914062,698.001953 579.019836,697.973816 578.936462,697.659424 
	C573.539734,695.895691 568.226379,694.446289 562.913025,692.996948 
	C562.913025,692.996948 563.021484,692.972168 562.937134,692.648193 
	C562.110107,692.186829 561.367310,692.049500 560.624573,691.912170 
	C546.524780,685.826416 534.937744,676.499146 524.903137,664.944946 
	C515.004700,653.547485 508.772217,640.233337 504.755066,625.999939 
	C502.454681,617.849304 501.108612,609.089966 501.382751,600.671387 
	C501.565277,595.066772 503.361450,588.515625 509.839172,585.203186 
	C514.697937,589.775513 517.850525,594.686646 517.967407,601.119385 
	C518.358215,622.634583 527.435547,639.674805 545.265015,651.550110 
	C559.057617,660.736755 574.275391,664.487183 590.818665,660.163879 
	C620.778076,665.418274 646.774475,647.787781 657.457581,622.582947 
	C668.614563,596.260010 658.807983,566.813171 633.997070,549.929626 
	C632.445007,548.875854 631.184509,548.447632 629.924011,548.019409 
	C629.924011,548.019409 630.007324,547.998901 630.000977,547.663696 
	C629.301758,547.218689 628.608826,547.108948 627.915894,546.999146 
	C627.915894,546.999146 628.014160,546.983215 628.002075,546.649841 
	C626.633667,545.882263 625.277283,545.448059 623.920898,545.013855 
	C623.920898,545.013855 624.008972,544.994019 623.997498,544.673523 
	C623.295471,544.230957 622.604919,544.108887 621.914368,543.986877 
	C621.914368,543.986877 622.025940,543.965881 621.930420,543.658081 
	C620.861511,543.231384 619.888062,543.112488 618.914612,542.993530 
	C618.914612,542.993530 619.021790,542.971619 618.944580,542.672607 
	C616.224548,541.945007 613.581665,541.516357 610.938782,541.087708 
	C609.907898,541.033691 608.876953,540.979614 607.280029,540.543579 
	C604.481812,539.819763 602.249878,539.179993 600.017578,539.178833 
	C465.337494,539.107727 330.657379,539.089050 195.977295,539.065491 
	C188.659454,539.404663 183.571625,532.337402 182.305923,527.074219 
	C179.659149,516.067993 182.198792,506.652283 194.886139,502.042511 
	C196.750168,501.657501 197.886337,501.302216 199.022491,500.946930 
	C199.022491,500.946930 199.001495,501.009277 199.423569,501.146790 
	C202.676544,501.261749 205.507462,501.219513 208.338364,501.219452 
	C330.079865,501.216156 451.821350,501.215393 573.562866,501.221771 
	C577.720947,501.221985 581.879089,501.298126 586.037170,501.338867 
z"/>
<path fill="#26A3B9" opacity="1.000000" stroke="none" 
	d="
M66.532684,458.889160 
	C59.094349,455.443848 54.666950,449.589325 53.365131,441.590668 
	C52.517529,436.382843 53.544643,431.484222 57.628624,427.635406 
	C59.055012,426.291138 60.396229,424.856476 62.292698,423.172241 
	C63.539860,422.559357 64.270676,422.237335 65.001495,421.915283 
	C65.001495,421.915283 64.985313,421.981049 65.375908,421.936401 
	C69.059799,421.547852 72.351807,420.921265 75.646599,420.906311 
	C95.633858,420.815613 115.621750,420.864136 135.609436,420.866638 
	C209.395782,420.875916 283.182129,420.885376 357.251129,421.108704 
	C358.143005,421.569183 358.744080,421.838623 359.362701,422.058838 
	C366.459534,424.585144 372.263672,432.946289 371.852112,440.062103 
	C371.381104,448.205292 365.123718,455.364410 356.650635,457.020996 
	C354.879761,457.304260 353.481781,457.594055 351.706787,457.934601 
	C349.851166,458.181366 348.372589,458.377319 346.432709,458.591949 
	C255.993958,458.615173 166.016479,458.621735 76.039009,458.608917 
	C74.388702,458.608673 72.738434,458.377594 70.950867,458.166992 
	C70.495850,457.955688 70.197968,458.007751 69.572334,458.298340 
	C68.327377,458.536896 67.430031,458.713013 66.532684,458.889160 
z"/>
<path fill="#188BA5" opacity="1.000000" stroke="none" 
	d="
M497.986755,377.644653 
	C499.124268,377.101288 500.218018,376.217651 501.405762,376.064819 
	C524.870667,373.046661 545.220337,363.531555 562.909485,347.763580 
	C584.042908,328.925385 596.829285,305.553894 600.605957,277.729523 
	C605.002930,245.335190 596.519897,216.049011 575.996094,190.537643 
	C558.430969,168.703995 535.541016,155.391678 508.210968,149.584518 
	C505.984619,149.111450 503.719940,148.818726 501.473053,148.442200 
	C501.507568,148.284195 501.517609,148.115036 501.583313,147.971283 
	C501.650970,147.823318 501.772888,147.700134 502.028748,147.375610 
	C512.032410,147.808350 521.878418,148.431595 532.371521,149.309296 
	C540.095703,151.681351 547.172852,153.798965 554.479004,156.156006 
	C560.497803,159.277161 566.287476,162.158905 572.077209,165.040649 
	C572.077209,165.040649 571.955505,165.046539 571.962769,165.330658 
	C572.937317,166.213669 573.904663,166.812561 574.872009,167.411469 
	C585.203674,173.850601 593.219604,182.777817 601.440369,191.997803 
	C601.843811,192.467010 601.920288,192.774658 601.996704,193.082291 
	C601.996704,193.082291 601.919128,193.018799 601.916260,193.340332 
	C605.300415,198.790405 608.687439,203.918961 612.074463,209.047516 
	C612.074463,209.047516 611.966797,209.034225 611.791382,209.290527 
	C612.107056,210.357727 612.598083,211.168640 613.143188,212.342041 
	C627.429871,244.038986 628.152222,275.660431 615.130920,307.539001 
	C613.260376,312.118561 611.094421,316.577454 609.065186,321.092163 
	C608.280884,322.564240 607.496643,324.036316 606.093994,325.738525 
	C605.307434,326.673828 605.139221,327.378937 604.970947,328.084045 
	C604.970947,328.084045 604.963867,327.967865 604.668091,327.911865 
	C604.234192,328.264008 604.096008,328.672180 603.957825,329.080353 
	C603.957825,329.080353 603.947144,328.954529 603.630371,329.002289 
	C603.202637,329.726471 603.091736,330.402893 602.980774,331.079315 
	C602.980774,331.079315 602.972595,330.974304 602.665161,330.882263 
	C602.224731,331.220032 602.091797,331.649872 601.958862,332.079742 
	C601.958862,332.079742 601.950623,331.957397 601.605469,331.971832 
	C600.842712,333.011383 600.425171,334.036530 600.007568,335.061646 
	C600.007568,335.061646 599.995056,334.999207 599.753418,334.679077 
	C598.992432,335.264374 598.473083,336.169830 597.953735,337.075317 
	C597.953674,337.075287 597.959229,336.958679 597.668701,336.880371 
	C595.579651,338.923981 593.781128,341.045868 591.982605,343.167755 
	C590.097107,345.082550 588.211609,346.997345 586.000305,349.282471 
	C585.247009,349.973328 584.819397,350.293854 584.391785,350.614380 
	C581.052734,353.132111 577.713684,355.649872 573.778198,358.440063 
	C572.784241,359.164673 572.386780,359.616913 571.989258,360.069092 
	C571.989258,360.069092 571.983887,359.978516 571.675781,359.822327 
	C569.898682,360.802155 568.429688,361.938171 566.960754,363.074158 
	C566.960754,363.074188 566.966919,362.966766 566.660278,362.818237 
	C563.217712,364.471130 560.081726,366.272552 556.945801,368.073944 
	C556.945801,368.073944 556.968445,367.957794 556.719604,367.824860 
	C555.699585,368.086914 554.928528,368.481903 554.157410,368.876892 
	C545.754639,371.573364 537.422852,374.529999 528.917297,376.849457 
	C525.038269,377.907257 520.816162,377.707306 515.903564,378.027832 
	C509.367249,377.866760 503.677002,377.755707 497.986755,377.644653 
z"/>
<path fill="#188BA6" opacity="1.000000" stroke="none" 
	d="
M449.915741,456.020538 
	C444.109192,453.408203 441.705292,448.493164 441.057068,442.548248 
	C440.793060,440.127014 441.044250,437.649658 441.351593,434.514038 
	C442.103546,432.192108 442.564941,430.554016 443.026367,428.915924 
	C443.026367,428.915924 443.048096,429.036713 443.382111,428.977234 
	C443.813446,428.253235 443.910797,427.588684 444.008118,426.924133 
	C444.008118,426.924133 444.017639,427.019653 444.342499,427.140686 
	C444.790283,426.814728 444.913239,426.367737 445.036194,425.920715 
	C445.036163,425.920715 445.035706,426.035126 445.350098,426.119385 
	C445.787994,425.776520 445.911469,425.349365 446.034973,424.922180 
	C446.034943,424.922180 446.034363,425.034332 446.349640,425.118622 
	C446.788239,424.776001 446.911591,424.349121 447.034912,423.922211 
	C447.034912,423.922211 447.027069,424.028320 447.324951,424.195312 
	C448.428162,423.550415 449.233490,422.738525 450.038818,421.926636 
	C450.038849,421.926636 450.027344,422.035736 450.342896,422.173523 
	C452.821014,421.606232 454.983551,420.901184 457.604065,420.238586 
	C480.063812,420.191528 502.065582,420.101990 524.067383,420.012482 
	C524.067383,420.012482 523.972351,420.044220 524.182739,420.291870 
	C525.619751,420.703339 526.846313,420.867157 528.072937,421.030975 
	C528.072937,421.030975 527.966797,421.047760 528.132935,421.330505 
	C529.226685,421.747253 530.154236,421.881256 531.081848,422.015259 
	C531.081848,422.015259 530.977844,422.029663 530.890869,422.324921 
	C533.227600,424.761749 535.651428,426.903290 538.075256,429.044830 
	C538.075256,429.044830 537.964294,429.035339 537.813477,429.341675 
	C538.495422,431.755371 539.328186,433.862732 540.083801,436.406860 
	C541.017395,444.179657 537.747253,449.883942 533.066406,455.050476 
	C531.757629,455.987488 530.448853,456.924500 528.385010,457.855713 
	C526.446899,458.005005 525.263855,458.160095 523.745239,458.052551 
	C522.291199,457.530792 521.173218,457.048706 520.054016,457.045837 
	C501.070984,456.996674 482.087738,456.979889 463.104980,457.060699 
	C461.733398,457.066559 460.365234,457.878754 458.589783,458.435486 
	C457.092773,458.699066 456.001465,458.843170 454.910187,458.987244 
	C454.910187,458.987244 454.937622,458.960144 455.009918,458.628021 
	C453.360046,457.537445 451.637909,456.778992 449.915741,456.020538 
z"/>
<path fill="#188BA6" opacity="1.000000" stroke="none" 
	d="
M402.910400,279.958344 
	C403.408936,278.316711 403.488037,276.306366 404.516235,275.115570 
	C408.574371,270.415802 409.848572,264.915405 409.990570,258.956940 
	C410.875946,221.802429 439.878296,190.527985 476.109650,186.091492 
	C482.924500,185.257019 489.951447,186.154907 497.000732,186.508698 
	C494.473053,187.486298 491.825134,188.208588 489.177246,188.930878 
	C485.379547,190.493790 481.544739,191.972900 477.790314,193.633621 
	C457.722626,202.510208 444.802338,217.945938 436.730103,238.675201 
	C435.280304,244.814621 434.197906,250.417572 432.986816,256.404205 
	C432.105927,261.483215 431.353729,266.178558 430.601532,270.873901 
	C428.690979,273.429352 426.780426,275.984833 424.236633,278.661652 
	C422.388885,279.541016 421.174347,280.299011 419.959808,281.057007 
	C419.959808,281.057037 419.977295,280.967896 419.561676,280.884766 
	C413.738770,280.531097 408.331512,280.260620 402.924225,279.990112 
	C402.924225,279.990112 402.927063,279.966217 402.910400,279.958344 
z"/>
<path fill="#188BA5" opacity="1.000000" stroke="none" 
	d="
M590.438965,660.110229 
	C574.275391,664.487183 559.057617,660.736755 545.265015,651.550110 
	C527.435547,639.674805 518.358215,622.634583 517.967407,601.119385 
	C517.850525,594.686646 514.697937,589.775513 510.189026,585.114197 
	C516.379272,579.151978 523.700867,581.470947 530.160278,583.553467 
	C536.321106,585.539795 540.520752,590.867493 540.933472,597.806152 
	C541.585388,608.765503 543.454773,619.373169 548.615112,629.163818 
	C557.502319,646.025452 571.525146,656.090088 590.438965,660.110229 
z"/>
<path fill="#2BA5BA" opacity="1.000000" stroke="none" 
	d="
M583.926941,451.992371 
	C579.264221,446.161865 578.355469,439.745178 581.041931,432.151611 
	C581.107422,431.316376 581.058899,431.114471 581.010437,430.912567 
	C581.010437,430.912567 581.029968,431.017792 581.361572,430.983765 
	C581.790283,430.272095 581.887512,429.594482 581.984680,428.916840 
	C581.984680,428.916840 581.996521,428.999054 582.337769,429.077179 
	C583.114502,428.075989 583.549927,426.996643 583.985413,425.917328 
	C583.985413,425.917328 583.993713,425.998596 584.320679,426.090027 
	C584.767334,425.758484 584.887146,425.335449 585.006897,424.912445 
	C585.006897,424.912445 585.006775,425.006805 585.326904,425.093689 
	C585.767151,424.757843 585.887207,424.335114 586.007202,423.912415 
	C586.007263,423.912415 585.999329,423.994934 586.302002,424.187531 
	C587.406250,423.558258 588.207764,422.736389 589.009338,421.914551 
	C589.009338,421.914551 589.000244,421.999817 589.323486,422.181152 
	C591.703186,421.748962 593.759521,421.135437 596.188965,420.567261 
	C598.053162,420.579895 599.544189,420.547119 601.239624,420.767151 
	C601.702515,421.223206 601.930664,421.525330 602.223938,421.615356 
	C611.092285,424.337341 617.201294,431.751923 616.899109,439.457489 
	C616.540771,448.597382 611.085205,454.652344 601.046509,457.159912 
	C600.310730,457.343719 599.699829,458.027222 598.600586,458.550171 
	C596.748230,458.749573 595.326233,458.877289 593.904175,459.005005 
	C593.904175,459.004974 594.015320,458.980530 594.001099,458.636047 
	C592.297791,457.871277 590.608704,457.450989 588.919678,457.030701 
	C588.919678,457.030701 588.993164,457.021393 589.149902,456.697266 
	C588.839905,456.239258 588.373169,456.105316 587.906494,455.971405 
	C587.906494,455.971405 588.038086,455.956879 587.951294,455.611084 
	C587.216980,455.188599 586.569519,455.111877 585.921997,455.035156 
	C585.921997,455.035156 585.992371,455.024170 586.163330,454.654053 
	C585.857910,454.188934 585.381592,454.093994 584.905212,453.999023 
	C584.905212,453.999023 584.973694,454.006409 585.308350,453.800140 
	C585.070984,453.060059 584.498962,452.526215 583.926941,451.992371 
z"/>
<path fill="#F6FBFC" opacity="1.000000" stroke="none" 
	d="
M534.977905,333.680176 
	C527.241577,335.638275 519.319641,338.662140 511.392609,338.675751 
	C350.397308,338.951538 189.401413,338.882294 28.405640,338.884094 
	C26.239265,338.884125 24.072891,338.910492 21.203136,338.966187 
	C20.499758,339.007782 20.034069,339.154816 20.034069,339.154816 
	C19.852821,339.084656 19.671574,339.014526 19.269554,338.629089 
	C19.048782,338.313843 19.002327,337.957672 19.002327,337.957672 
	C21.013025,337.637817 23.023645,337.038422 25.034431,337.037872 
	C181.298889,336.994476 337.563385,336.978546 493.827850,337.031982 
	C507.613800,337.036713 521.394592,337.461670 534.977905,333.680176 
z"/>
<path fill="#188BA5" opacity="1.000000" stroke="none" 
	d="
M599.030823,458.478424 
	C599.699829,458.027222 600.310730,457.343719 601.046509,457.159912 
	C611.085205,454.652344 616.540771,448.597382 616.899109,439.457489 
	C617.201294,431.751923 611.092285,424.337341 602.223938,421.615356 
	C601.930664,421.525330 601.702515,421.223206 601.704041,420.722168 
	C608.952576,420.315460 615.941040,420.206512 623.245667,420.271210 
	C628.066162,422.971130 632.570435,425.497375 637.074768,428.023651 
	C637.074768,428.023651 636.978088,428.014587 636.732666,428.316223 
	C640.651245,435.174377 639.479614,442.119202 637.976868,449.088135 
	C637.976868,449.088135 637.952087,448.966217 637.579346,449.009216 
	C637.138428,449.725342 637.070190,450.398499 637.001953,451.071625 
	C637.001953,451.071625 636.995056,450.988861 636.662476,450.763062 
	C636.206421,451.052460 636.082947,451.567627 635.959412,452.082794 
	C635.959412,452.082794 635.958374,451.963470 635.663391,451.870361 
	C634.566101,452.877350 633.763794,453.977417 632.961548,455.077484 
	C632.961548,455.077484 632.971680,454.964691 632.671692,454.814880 
	C631.904297,455.170105 631.436951,455.675171 630.969604,456.180237 
	C629.528809,457.040283 628.087952,457.900299 625.886963,458.859100 
	C616.428162,458.798065 607.729492,458.638245 599.030823,458.478424 
z"/>
<path fill="#188BA5" opacity="1.000000" stroke="none" 
	d="
M357.023529,457.027496 
	C365.123718,455.364410 371.381104,448.205292 371.852112,440.062103 
	C372.263672,432.946289 366.459534,424.585144 359.362701,422.058838 
	C358.744080,421.838623 358.143005,421.569183 357.720886,421.067596 
	C365.956787,420.880341 374.005585,420.948029 382.054352,421.015717 
	C382.054352,421.015717 381.979828,421.032288 382.045074,421.143005 
	C382.110321,421.253754 382.540833,421.401520 382.540833,421.401520 
	C382.540833,421.401520 382.980225,421.179016 382.980225,421.179016 
	C386.337921,424.313904 389.695618,427.448792 393.298523,431.195557 
	C395.077911,438.868439 393.923126,445.588623 390.974060,452.081421 
	C390.974060,452.081421 390.967957,451.975586 390.664062,451.846802 
	C389.563110,452.836609 388.766022,453.955200 387.968964,455.073792 
	C387.968964,455.073792 387.979034,454.972839 387.714111,454.793396 
	C386.950287,455.095612 386.451324,455.577209 385.952393,456.058838 
	C385.952393,456.058838 385.951660,455.950653 385.832916,456.127136 
	C385.284393,456.490387 384.854614,456.677155 384.424835,456.863922 
	C384.424835,456.863922 384.177216,457.069580 383.807587,457.218719 
	C382.858154,457.826385 382.278381,458.284943 381.698578,458.743469 
	C381.443024,458.808655 381.187469,458.873871 380.252808,458.764832 
	C372.432465,458.604248 365.291138,458.617920 357.991882,458.458191 
	C357.551117,458.150818 357.266785,458.020050 356.992065,457.676270 
	C357.003204,457.460052 357.023529,457.027496 357.023529,457.027496 
z"/>
<path fill="#7FCBD5" opacity="1.000000" stroke="none" 
	d="
M196.151352,539.429688 
	C330.657379,539.089050 465.337494,539.107727 600.017578,539.178833 
	C602.249878,539.179993 604.481812,539.819763 606.894836,540.504028 
	C605.081543,540.913147 603.087280,541.037659 601.093079,541.038025 
	C467.862640,541.059448 334.632172,541.075745 201.401749,541.029785 
	C199.709503,541.029175 198.017517,540.223694 196.151352,539.429688 
z"/>
<path fill="#F9FCFD" opacity="1.000000" stroke="none" 
	d="
M417.023651,627.046448 
	C415.160675,627.367004 413.297882,627.966614 411.434692,627.967896 
	C341.931793,628.015747 272.428406,627.902466 202.926636,628.187744 
	C196.633713,628.213623 192.173172,626.242249 188.446396,621.826477 
	C187.125946,620.262024 186.272751,618.136902 185.711899,616.126648 
	C183.450104,608.019958 182.412338,599.721741 188.744278,593.031250 
	C192.119843,589.464539 196.629074,586.944153 202.137711,586.949707 
	C272.438904,587.020508 342.740173,587.008789 413.287170,587.303284 
	C413.220245,587.820251 412.907593,588.051941 412.167999,588.269653 
	C404.846344,588.251770 397.951599,588.247803 390.618042,588.195923 
	C385.043365,588.423340 379.907715,588.932983 374.771576,588.938171 
	C318.319672,588.995483 261.867218,588.884766 205.416519,589.151245 
	C201.084534,589.171692 196.086945,590.759644 192.584534,593.272095 
	C185.982056,598.008362 183.982635,607.589111 187.510941,615.471985 
	C190.748489,622.705261 196.891022,626.725281 204.886536,626.913391 
	C216.037598,627.175903 227.199326,626.997009 238.356476,626.987793 
	C287.313934,626.947327 336.271362,626.899902 385.674988,626.874268 
	C396.757751,626.603882 407.533722,628.402039 417.839661,625.056335 
	C417.496124,625.911743 417.259888,626.479126 417.023651,627.046448 
z"/>
<path fill="#7FCBD5" opacity="1.000000" stroke="none" 
	d="
M381.803192,420.710297 
	C374.005585,420.948029 365.956787,420.880341 357.438232,420.853699 
	C283.182129,420.885376 209.395782,420.875916 135.609436,420.866638 
	C115.621750,420.864136 95.633858,420.815613 75.646599,420.906311 
	C72.351807,420.921265 69.059799,421.547852 65.344406,421.924011 
	C67.230682,420.970123 69.488609,419.826630 71.868484,419.063354 
	C73.081436,418.674347 74.513474,418.955566 75.846489,418.955536 
	C175.013153,418.953491 274.179840,418.942047 373.346466,419.014496 
	C376.081970,419.016479 378.816864,419.921143 381.803192,420.710297 
z"/>
<path fill="#FCFEFE" opacity="1.000000" stroke="none" 
	d="
M497.534149,377.763885 
	C503.677002,377.755707 509.367249,377.866760 515.519104,378.072266 
	C514.598450,378.440857 513.216248,378.954712 511.833893,378.955048 
	C348.020386,378.994690 184.206863,378.996643 20.393358,378.991333 
	C19.399614,378.991302 18.405874,378.861633 17.173656,378.429047 
	C19.421789,377.997925 21.908401,377.871063 24.395012,377.871063 
	C179.460144,377.870514 334.525299,377.880310 489.590424,377.888885 
	C492.087463,377.889008 494.584503,377.885101 497.534149,377.763885 
z"/>
<path fill="#9DD5DE" opacity="1.000000" stroke="none" 
	d="
M586.502075,501.303467 
	C581.879089,501.298126 577.720947,501.221985 573.562866,501.221771 
	C451.821350,501.215393 330.079865,501.216156 208.338364,501.219452 
	C205.507462,501.219513 202.676544,501.261749 199.394043,501.132263 
	C200.270432,500.653625 201.598312,500.041504 202.926392,500.041077 
	C335.529755,499.998169 468.133118,500.000946 600.736511,500.013336 
	C601.723877,500.013428 602.711182,500.183380 603.766724,500.713898 
	C598.212280,501.191864 592.589600,501.229980 586.502075,501.303467 
z"/>
<path fill="#FCFEFE" opacity="1.000000" stroke="none" 
	d="
M358.149841,458.631592 
	C365.291138,458.617920 372.432465,458.604248 379.862305,458.828491 
	C377.833221,459.580109 375.514069,460.546600 373.198151,460.538910 
	C343.583649,460.440582 313.969818,460.064301 284.355438,460.028076 
	C214.096222,459.942047 143.836823,460.004028 73.577507,459.983215 
	C71.434807,459.982574 69.292191,459.727234 66.841110,459.239899 
	C67.430031,458.713013 68.327377,458.536896 69.863220,458.379791 
	C70.697205,458.350647 70.892677,458.302429 71.088142,458.254242 
	C72.738434,458.377594 74.388702,458.608673 76.039009,458.608917 
	C166.016479,458.621735 255.993958,458.615173 346.884460,458.727844 
	C351.248260,458.773926 354.699066,458.702759 358.149841,458.631592 
z"/>
<path fill="#DFF0F4" opacity="1.000000" stroke="none" 
	d="
M609.432129,321.056458 
	C611.094421,316.577454 613.260376,312.118561 615.130920,307.539001 
	C628.152222,275.660431 627.429871,244.038986 613.405762,212.334793 
	C613.789307,211.956879 613.964233,211.948700 614.139221,211.940536 
	C620.553528,222.379852 623.117065,234.106613 624.918152,245.952164 
	C625.929382,252.602585 626.061707,259.444885 625.975281,266.192902 
	C625.725769,285.679718 619.963867,303.697296 610.659851,320.676483 
	C610.545288,320.885681 610.093506,320.910095 609.432129,321.056458 
z"/>
<path fill="#F6FBFC" opacity="1.000000" stroke="none" 
	d="
M417.383209,627.005981 
	C417.259888,626.479126 417.496124,625.911743 418.018982,624.794373 
	C419.655579,622.794373 421.109436,621.427002 422.338409,619.880920 
	C429.870728,610.405090 427.227631,596.871277 416.737274,590.878479 
	C415.323730,590.070862 413.974152,589.151306 412.594940,588.283630 
	C412.907593,588.051941 413.220245,587.820251 413.746277,587.389160 
	C418.600739,589.406311 423.996338,590.681274 426.381653,595.947815 
	C430.609894,605.283325 431.507477,620.980652 417.383209,627.005981 
z"/>
<path fill="#F6FBFC" opacity="1.000000" stroke="none" 
	d="
M455.127380,459.371368 
	C456.001465,458.843170 457.092773,458.699066 459.044830,458.555115 
	C481.297333,458.475250 502.689026,458.395203 524.080750,458.315155 
	C525.263855,458.160095 526.446899,458.005005 528.079834,457.888489 
	C526.924072,458.616699 525.319885,459.902588 523.712830,459.906219 
	C500.923615,459.957855 478.134064,459.835632 455.127380,459.371368 
z"/>
<path fill="#9DD5DE" opacity="1.000000" stroke="none" 
	d="
M523.813599,419.660522 
	C502.065582,420.101990 480.063812,420.191528 457.561432,419.974487 
	C457.046204,419.490112 457.031586,419.312317 457.016998,419.134583 
	C479.197937,419.192566 501.378876,419.250580 523.813599,419.660522 
z"/>
<path fill="#D9ECF2" opacity="1.000000" stroke="none" 
	d="
M396.587280,235.100311 
	C394.852325,246.217300 392.733337,257.501343 394.753693,269.471649 
	C394.267212,269.470825 393.339752,269.069733 393.318817,268.625916 
	C392.788330,257.380798 391.911774,246.091782 396.587280,235.100311 
z"/>
<path fill="#D9ECF2" opacity="1.000000" stroke="none" 
	d="
M486.152985,149.231750 
	C477.341187,152.265778 468.115875,155.300430 458.552246,158.368805 
	C463.196289,153.067566 470.099365,151.839005 476.653320,150.048828 
	C479.540955,149.260086 482.702362,149.473785 486.152985,149.231750 
z"/>
<path fill="#D9ECF2" opacity="1.000000" stroke="none" 
	d="
M423.672119,183.017731 
	C423.429413,184.175095 423.060150,185.582047 422.256134,186.666748 
	C418.442169,191.812164 414.509613,196.869690 410.278442,201.992432 
	C412.463898,194.346115 417.895782,188.726227 423.672119,183.017731 
z"/>
<path fill="#DFF0F4" opacity="1.000000" stroke="none" 
	d="
M554.249939,155.916580 
	C547.172852,153.798965 540.095703,151.681351 532.757202,149.357742 
	C541.035706,148.412582 548.515076,151.952911 555.833984,155.343353 
	C555.118347,155.760193 554.684143,155.838394 554.249939,155.916580 
z"/>
<path fill="#D9ECF2" opacity="1.000000" stroke="none" 
	d="
M391.323486,451.974060 
	C393.923126,445.588623 395.077911,438.868439 393.406433,431.550720 
	C397.418182,437.896362 396.907074,444.483917 391.323486,451.974060 
z"/>
<path fill="#DFF0F4" opacity="1.000000" stroke="none" 
	d="
M533.441162,455.017487 
	C537.747253,449.883942 541.017395,444.179657 540.313538,436.412048 
	C540.620422,435.980530 541.079895,435.969513 541.079895,435.969513 
	C543.440125,442.478607 539.432739,452.968689 533.441162,455.017487 
z"/>
<path fill="#D9ECF2" opacity="1.000000" stroke="none" 
	d="
M554.479004,156.156006 
	C554.684143,155.838394 555.118347,155.760193 556.203796,155.563705 
	C561.537598,157.942352 566.229431,160.422104 570.888489,162.962112 
	C571.367371,163.223175 571.649902,163.844360 572.050354,164.669540 
	C566.287476,162.158905 560.497803,159.277161 554.479004,156.156006 
z"/>
<path fill="#D9ECF2" opacity="1.000000" stroke="none" 
	d="
M612.052917,208.660400 
	C608.687439,203.918961 605.300415,198.790405 601.947266,193.300934 
	C604.615479,196.130569 607.420898,199.199646 609.809998,202.564407 
	C610.956482,204.179047 611.315674,206.352753 612.052917,208.660400 
z"/>
<path fill="#DFF0F4" opacity="1.000000" stroke="none" 
	d="
M433.115509,256.020538 
	C434.197906,250.417572 435.280304,244.814621 436.681427,239.031067 
	C436.691467,241.004852 436.457855,243.173325 436.056824,245.310364 
	C435.435547,248.620789 434.700012,251.909744 433.726959,255.601532 
	C433.441010,255.995239 433.115509,256.020538 433.115509,256.020538 
z"/>
<path fill="#DFF0F4" opacity="1.000000" stroke="none" 
	d="
M638.332581,448.930145 
	C639.479614,442.119202 640.651245,435.174377 636.736877,428.267853 
	C642.269043,434.484528 641.887878,441.513367 638.332581,448.930145 
z"/>
<path fill="#F6FBFC" opacity="1.000000" stroke="none" 
	d="
M598.600586,458.550171 
	C607.729492,458.638245 616.428162,458.798065 625.600464,459.002014 
	C624.566040,459.362762 623.058228,459.949585 621.549683,459.951630 
	C612.483459,459.963867 603.417114,459.841766 594.127441,459.384827 
	C595.326233,458.877289 596.748230,458.749573 598.600586,458.550171 
z"/>
<path fill="#DFF0F4" opacity="1.000000" stroke="none" 
	d="
M637.052368,427.663940 
	C632.570435,425.497375 628.066162,422.971130 623.278198,420.034882 
	C622.994568,419.624908 623.013855,419.148132 623.013855,419.148132 
	C628.945984,419.701385 633.971436,421.812714 637.052368,427.663940 
z"/>
<path fill="#9DD5DE" opacity="1.000000" stroke="none" 
	d="
M403.121887,280.316467 
	C408.331512,280.260620 413.738770,280.531097 419.606323,280.893066 
	C417.660645,283.171539 410.081268,283.877838 406.825684,282.246277 
	C405.677490,281.670868 404.489410,281.175018 403.121887,280.316467 
z"/>
<path fill="#D9ECF2" opacity="1.000000" stroke="none" 
	d="
M432.986816,256.404205 
	C433.115509,256.020538 433.441010,255.995239 433.604187,255.989777 
	C433.802063,261.103943 435.518097,266.479584 431.042694,270.926727 
	C431.353729,266.178558 432.105927,261.483215 432.986816,256.404205 
z"/>
<path fill="#9DD5DE" opacity="1.000000" stroke="none" 
	d="
M622.547913,419.096924 
	C623.013855,419.148132 622.994568,419.624908 622.962036,419.861237 
	C615.941040,420.206512 608.952576,420.315460 601.499695,420.469391 
	C599.544189,420.547119 598.053162,420.579895 596.200195,420.335266 
	C595.916260,419.757507 595.968384,419.452698 595.994690,419.143463 
	C604.690430,419.110870 613.386230,419.078278 622.547913,419.096924 
z"/>
<path fill="#D9ECF2" opacity="1.000000" stroke="none" 
	d="
M453.216003,161.197556 
	C449.260345,163.892136 444.945221,166.568604 440.272949,169.124084 
	C444.229401,166.395203 448.542969,163.787323 453.216003,161.197556 
z"/>
<path fill="#DFF0F4" opacity="1.000000" stroke="none" 
	d="
M563.056763,693.344910 
	C568.226379,694.446289 573.539734,695.895691 578.950928,697.712158 
	C573.766052,696.617188 568.483276,695.155029 563.056763,693.344910 
z"/>
<path fill="#DFF0F4" opacity="1.000000" stroke="none" 
	d="
M557.953979,205.407059 
	C560.767517,207.506470 563.595032,209.972473 566.203247,212.757355 
	C563.311890,210.642029 560.639954,208.207840 557.953979,205.407059 
z"/>
<path fill="#D9ECF2" opacity="1.000000" stroke="none" 
	d="
M18.593166,337.994873 
	C19.002327,337.957672 19.048782,338.313843 19.013393,338.489929 
	C15.539660,340.175903 12.101314,341.685791 8.288983,343.100952 
	C10.422024,339.457123 13.805003,337.716461 18.593166,337.994873 
z"/>
<path fill="#D9ECF2" opacity="1.000000" stroke="none" 
	d="
M501.416595,187.049225 
	C507.369537,187.127350 513.794189,187.182037 520.420776,187.512238 
	C514.377930,187.533768 508.133148,187.279800 501.416595,187.049225 
z"/>
<path fill="#D9ECF2" opacity="1.000000" stroke="none" 
	d="
M557.342590,368.052582 
	C560.081726,366.272552 563.217712,364.471130 566.713989,362.820801 
	C563.962708,364.658325 560.851074,366.344788 557.342590,368.052582 
z"/>
<path fill="#D9ECF2" opacity="1.000000" stroke="none" 
	d="
M538.051208,428.666229 
	C535.651428,426.903290 533.227600,424.761749 530.883179,422.272949 
	C535.126038,422.037994 537.085815,424.597351 538.051208,428.666229 
z"/>
<path fill="#D9ECF2" opacity="1.000000" stroke="none" 
	d="
M489.536835,188.915314 
	C491.825134,188.208588 494.473053,187.486298 497.488312,186.576233 
	C498.293915,186.475296 498.732178,186.562149 499.352295,186.787231 
	C496.321594,187.583557 493.109009,188.241653 489.536835,188.915314 
z"/>
<path fill="#D9ECF2" opacity="1.000000" stroke="none" 
	d="
M592.336426,343.106384 
	C593.781128,341.045868 595.579651,338.923981 597.727051,336.882446 
	C596.280701,338.990234 594.485474,341.017670 592.336426,343.106384 
z"/>
<path fill="#D9ECF2" opacity="1.000000" stroke="none" 
	d="
M541.024536,435.569763 
	C541.079895,435.969513 540.620422,435.980530 540.390686,435.975342 
	C539.328186,433.862732 538.495422,431.755371 537.817627,429.286133 
	C538.971497,431.006226 539.970337,433.088135 541.024536,435.569763 
z"/>
<path fill="#D9ECF2" opacity="1.000000" stroke="none" 
	d="
M434.658997,172.938690 
	C433.211365,174.700226 431.411407,176.482758 429.263977,178.132477 
	C430.713226,176.319672 432.509949,174.639679 434.658997,172.938690 
z"/>
<path fill="#DFF0F4" opacity="1.000000" stroke="none" 
	d="
M660.972534,519.673340 
	C658.424744,518.582825 655.770813,517.156006 652.960876,515.418457 
	C655.492004,516.517517 658.179199,517.927307 660.972534,519.673340 
z"/>
<path fill="#D9ECF2" opacity="1.000000" stroke="none" 
	d="
M456.632446,419.055786 
	C457.031586,419.312317 457.046204,419.490112 457.103485,419.932007 
	C454.983551,420.901184 452.821014,421.606232 450.288300,422.168304 
	C452.028076,421.009216 454.138000,419.993103 456.632446,419.055786 
z"/>
<path fill="#DFF0F4" opacity="1.000000" stroke="none" 
	d="
M595.615845,419.067993 
	C595.968384,419.452698 595.916260,419.757507 595.827087,420.289917 
	C593.759521,421.135437 591.703186,421.748962 589.280884,422.176605 
	C591.022339,420.991333 593.129639,419.991943 595.615845,419.067993 
z"/>
<path fill="#D9ECF2" opacity="1.000000" stroke="none" 
	d="
M611.129272,541.429932 
	C613.581665,541.516357 616.224548,541.945007 618.956055,542.726135 
	C616.469666,542.643127 613.894775,542.207642 611.129272,541.429932 
z"/>
<path fill="#D9ECF2" opacity="1.000000" stroke="none" 
	d="
M567.346680,363.061127 
	C568.429688,361.938171 569.898682,360.802155 571.721069,359.819336 
	C570.627136,360.997711 569.179871,362.022888 567.346680,363.061127 
z"/>
<path fill="#7FCBD5" opacity="1.000000" stroke="none" 
	d="
M450.101196,456.300781 
	C451.637909,456.778992 453.360046,457.537445 455.020874,458.643921 
	C453.401886,458.188263 451.844269,457.384644 450.101196,456.300781 
z"/>
<path fill="#D9ECF2" opacity="1.000000" stroke="none" 
	d="
M442.685944,429.027496 
	C442.564941,430.554016 442.103546,432.192108 441.404541,434.022980 
	C441.559784,432.523499 441.952667,430.831299 442.685944,429.027496 
z"/>
<path fill="#D9ECF2" opacity="1.000000" stroke="none" 
	d="
M439.669678,168.941223 
	C438.882050,170.035828 437.749786,171.154251 436.267212,172.135315 
	C437.052917,170.986969 438.188995,169.975998 439.669678,168.941223 
z"/>
<path fill="#DFF0F4" opacity="1.000000" stroke="none" 
	d="
M664.977417,522.684082 
	C663.618958,522.226257 662.157959,521.440186 660.832764,520.289307 
	C662.270630,520.734924 663.572754,521.545349 664.977417,522.684082 
z"/>
<path fill="#F6FBFC" opacity="1.000000" stroke="none" 
	d="
M589.065857,457.374268 
	C590.608704,457.450989 592.297791,457.871277 594.013550,458.691528 
	C592.430847,458.633636 590.821472,458.175720 589.065857,457.374268 
z"/>
<path fill="#D9ECF2" opacity="1.000000" stroke="none" 
	d="
M388.333435,455.053955 
	C388.766022,453.955200 389.563110,452.836609 390.716980,451.843262 
	C390.281799,452.990356 389.489868,454.012238 388.333435,455.053955 
z"/>
<path fill="#DFF0F4" opacity="1.000000" stroke="none" 
	d="
M633.324219,455.049805 
	C633.763794,453.977417 634.566101,452.877350 635.723022,451.869202 
	C635.280762,452.981445 634.483826,454.001770 633.324219,455.049805 
z"/>
<path fill="#9DD5DE" opacity="1.000000" stroke="none" 
	d="
M420.341492,281.046143 
	C421.174347,280.299011 422.388885,279.541016 423.985046,278.837524 
	C423.152161,279.606445 421.937653,280.320862 420.341492,281.046143 
z"/>
<path fill="#D9ECF2" opacity="1.000000" stroke="none" 
	d="
M614.102295,211.561584 
	C613.964233,211.948700 613.789307,211.956879 613.351685,211.972290 
	C612.598083,211.168640 612.107056,210.357727 611.797485,209.236603 
	C612.674500,209.678482 613.369995,210.430557 614.102295,211.561584 
z"/>
<path fill="#D9ECF2" opacity="1.000000" stroke="none" 
	d="
M630.035767,548.352539 
	C631.184509,548.447632 632.445007,548.875854 633.786865,549.659790 
	C632.627991,549.572144 631.387756,549.128906 630.035767,548.352539 
z"/>
<path fill="#D9ECF2" opacity="1.000000" stroke="none" 
	d="
M409.847961,202.148468 
	C409.351746,203.203613 408.650940,204.476135 408.277527,205.842438 
	C408.951050,204.746078 409.297241,203.555969 409.847961,202.148468 
z"/>
<path fill="#D9ECF2" opacity="1.000000" stroke="none" 
	d="
M624.040039,545.354858 
	C625.277283,545.448059 626.633667,545.882263 628.010315,546.698914 
	C626.740112,546.619507 625.449707,546.157654 624.040039,545.354858 
z"/>
<path fill="#DFF0F4" opacity="1.000000" stroke="none" 
	d="
M583.663208,426.022430 
	C583.549927,426.996643 583.114502,428.075989 582.296631,429.082916 
	C582.389832,428.049530 582.865417,427.088531 583.663208,426.022430 
z"/>
<path fill="#D9ECF2" opacity="1.000000" stroke="none" 
	d="
M600.338257,334.969727 
	C600.425171,334.036530 600.842712,333.011383 601.666565,331.966919 
	C601.604858,332.924286 601.136902,333.901062 600.338257,334.969727 
z"/>
<path fill="#D9ECF2" opacity="1.000000" stroke="none" 
	d="
M381.909363,458.663879 
	C382.278381,458.284943 382.858154,457.826385 383.663391,457.290222 
	C383.299255,457.669800 382.709686,458.127045 381.909363,458.663879 
z"/>
<path fill="#DFF0F4" opacity="1.000000" stroke="none" 
	d="
M588.671021,421.940369 
	C588.207764,422.736389 587.406250,423.558258 586.260803,424.183411 
	C586.722107,423.313202 587.527405,422.639679 588.671021,421.940369 
z"/>
<path fill="#D9ECF2" opacity="1.000000" stroke="none" 
	d="
M449.692688,421.936401 
	C449.233490,422.738525 448.428162,423.550415 447.271881,424.191895 
	C447.729462,423.329712 448.538025,422.637939 449.692688,421.936401 
z"/>
<path fill="#D9ECF2" opacity="1.000000" stroke="none" 
	d="
M574.929382,166.995941 
	C573.904663,166.812561 572.937317,166.213669 571.959106,165.269867 
	C572.961060,165.476761 573.973877,166.028580 574.929382,166.995941 
z"/>
<path fill="#DFF0F4" opacity="1.000000" stroke="none" 
	d="
M579.072876,698.350586 
	C580.140076,698.071960 581.366089,698.142029 582.801636,698.528320 
	C581.751343,698.796204 580.491516,698.747681 579.072876,698.350586 
z"/>
<path fill="#9DD5DE" opacity="1.000000" stroke="none" 
	d="
M198.644882,500.987335 
	C197.886337,501.302216 196.750168,501.657501 195.235092,502.006348 
	C195.993225,501.675873 197.130249,501.351807 198.644882,500.987335 
z"/>
<path fill="#D9ECF2" opacity="1.000000" stroke="none" 
	d="
M7.643599,342.934540 
	C7.549248,343.647491 7.090928,344.376770 6.275187,345.063354 
	C6.371721,344.330750 6.825675,343.640808 7.643599,342.934540 
z"/>
<path fill="#DFF0F4" opacity="1.000000" stroke="none" 
	d="
M554.385620,201.504517 
	C554.754883,201.788834 555.310974,202.242493 555.959351,202.888550 
	C555.558594,202.611908 555.065552,202.142868 554.385620,201.504517 
z"/>
<path fill="#D9ECF2" opacity="1.000000" stroke="none" 
	d="
M572.281738,360.055664 
	C572.386780,359.616913 572.784241,359.164673 573.504883,358.698395 
	C573.410034,359.136963 572.992065,359.589569 572.281738,360.055664 
z"/>
<path fill="#D9ECF2" opacity="1.000000" stroke="none" 
	d="
M527.774536,420.821838 
	C526.846313,420.867157 525.619751,420.703339 524.166321,420.244568 
	C525.118408,420.170654 526.297241,420.391693 527.774536,420.821838 
z"/>
<path fill="#D9ECF2" opacity="1.000000" stroke="none" 
	d="
M598.316406,337.052795 
	C598.473083,336.169830 598.992432,335.264374 599.785278,334.679565 
	C599.598877,335.676941 599.139038,336.353638 598.316406,337.052795 
z"/>
<path fill="#D9ECF2" opacity="1.000000" stroke="none" 
	d="
M584.481323,350.441650 
	C584.819397,350.293854 585.247009,349.973328 585.686523,349.437683 
	C585.322632,349.571381 584.946777,349.920166 584.481323,350.441650 
z"/>
<path fill="#D9ECF2" opacity="1.000000" stroke="none" 
	d="
M554.502808,368.896729 
	C554.928528,368.481903 555.699585,368.086914 556.777771,367.835571 
	C556.339294,368.291687 555.593750,368.604156 554.502808,368.896729 
z"/>
<path fill="#D9ECF2" opacity="1.000000" stroke="none" 
	d="
M530.951904,421.671448 
	C530.154236,421.881256 529.226685,421.747253 528.123901,421.277527 
	C528.906433,421.070435 529.864258,421.199036 530.951904,421.671448 
z"/>
<path fill="#7FCBD5" opacity="1.000000" stroke="none" 
	d="
M64.702560,421.744965 
	C64.270676,422.237335 63.539860,422.559357 62.493183,422.881927 
	C62.919422,422.446533 63.661518,422.010590 64.702560,421.744965 
z"/>
<path fill="#D9ECF2" opacity="1.000000" stroke="none" 
	d="
M619.046265,543.335754 
	C619.888062,543.112488 620.861511,543.231384 621.941467,543.713745 
	C621.091309,543.944092 620.134583,543.811035 619.046265,543.335754 
z"/>
<path fill="#D9ECF2" opacity="1.000000" stroke="none" 
	d="
M605.293335,327.971039 
	C605.139221,327.378937 605.307434,326.673828 605.872192,325.954163 
	C606.051086,326.579071 605.833374,327.218567 605.293335,327.971039 
z"/>
<path fill="#DFF0F4" opacity="1.000000" stroke="none" 
	d="
M581.675659,429.033630 
	C581.887512,429.594482 581.790283,430.272095 581.309021,430.993988 
	C581.072144,430.408966 581.219360,429.779663 581.675659,429.033630 
z"/>
<path fill="#D9ECF2" opacity="1.000000" stroke="none" 
	d="
M3.770258,347.714111 
	C3.927772,348.231567 3.809913,349.002441 3.307740,349.912079 
	C3.113913,349.356415 3.304399,348.661987 3.770258,347.714111 
z"/>
<path fill="#D9ECF2" opacity="1.000000" stroke="none" 
	d="
M622.025635,544.300171 
	C622.604919,544.108887 623.295471,544.230957 624.007629,544.717529 
	C623.398438,544.925781 622.767639,544.769653 622.025635,544.300171 
z"/>
<path fill="#D9ECF2" opacity="1.000000" stroke="none" 
	d="
M603.304749,330.978271 
	C603.091736,330.402893 603.202637,329.726471 603.693237,328.996124 
	C603.924805,329.587219 603.776794,330.232208 603.304749,330.978271 
z"/>
<path fill="#D9ECF2" opacity="1.000000" stroke="none" 
	d="
M443.685791,427.026428 
	C443.910797,427.588684 443.813446,428.253235 443.321838,428.988800 
	C443.072845,428.416138 443.218170,427.772430 443.685791,427.026428 
z"/>
<path fill="#DFF0F4" opacity="1.000000" stroke="none" 
	d="
M637.320312,450.965240 
	C637.070190,450.398499 637.138428,449.725342 637.640198,448.996155 
	C637.928650,449.579681 637.783630,450.219269 637.320312,450.965240 
z"/>
<path fill="#D9ECF2" opacity="1.000000" stroke="none" 
	d="
M628.025818,547.312378 
	C628.608826,547.108948 629.301758,547.218689 630.011475,547.705322 
	C629.397400,547.929932 628.766602,547.777832 628.025818,547.312378 
z"/>
<path fill="#F6FBFC" opacity="1.000000" stroke="none" 
	d="
M583.970703,452.311127 
	C584.498962,452.526215 585.070984,453.060059 585.301636,453.833923 
	C584.645020,453.592621 584.329712,453.111237 583.970703,452.311127 
z"/>
<path fill="#DFF0F4" opacity="1.000000" stroke="none" 
	d="
M560.829285,692.210205 
	C561.367310,692.049500 562.110107,692.186829 562.950012,692.702271 
	C562.376099,692.889771 561.705078,692.699036 560.829285,692.210205 
z"/>
<path fill="#D9ECF2" opacity="1.000000" stroke="none" 
	d="
M386.286255,456.012115 
	C386.451324,455.577209 386.950287,455.095612 387.764648,454.798035 
	C387.593384,455.309906 387.106750,455.637665 386.286255,456.012115 
z"/>
<path fill="#F6FBFC" opacity="1.000000" stroke="none" 
	d="
M586.054932,455.331726 
	C586.569519,455.111877 587.216980,455.188599 587.959229,455.676819 
	C587.431946,455.934998 586.809875,455.781647 586.054932,455.331726 
z"/>
<path fill="#DFF0F4" opacity="1.000000" stroke="none" 
	d="
M631.303101,456.120544 
	C631.436951,455.675171 631.904297,455.170105 632.728149,454.819397 
	C632.601868,455.336121 632.119263,455.698486 631.303101,456.120544 
z"/>
<path fill="#D9ECF2" opacity="1.000000" stroke="none" 
	d="
M384.629395,456.758423 
	C384.854614,456.677155 385.284393,456.490387 385.887024,456.126007 
	C385.651215,456.183228 385.242584,456.418060 384.629395,456.758423 
z"/>
<path fill="#DFF0F4" opacity="1.000000" stroke="none" 
	d="
M566.979736,214.272583 
	C567.321777,214.112137 567.729980,214.231979 568.077393,214.719452 
	C567.692932,214.909012 567.369446,214.730957 566.979736,214.272583 
z"/>
<path fill="#DFF0F4" opacity="1.000000" stroke="none" 
	d="
M567.980835,215.272949 
	C568.241699,215.082535 568.568726,215.167984 568.964722,215.555786 
	C568.704773,215.755035 568.375854,215.651917 567.980835,215.272949 
z"/>
<path fill="#DFF0F4" opacity="1.000000" stroke="none" 
	d="
M565.979004,213.271637 
	C566.346313,213.107620 566.778931,213.222412 567.109253,213.711792 
	C566.686096,213.907745 566.365295,213.729095 565.979004,213.271637 
z"/>
<path fill="#D9ECF2" opacity="1.000000" stroke="none" 
	d="
M499.692688,187.135544 
	C499.756653,186.814514 500.029602,186.712616 500.692291,186.808456 
	C500.688568,187.122345 500.295135,187.238510 499.692688,187.135544 
z"/>
<path fill="#DFF0F4" opacity="1.000000" stroke="none" 
	d="
M556.982971,204.254974 
	C557.388672,204.107056 557.864624,204.232590 558.166138,204.720856 
	C557.678833,204.898544 557.366028,204.713501 556.982971,204.254974 
z"/>
<path fill="#DFF0F4" opacity="1.000000" stroke="none" 
	d="
M555.985413,203.260406 
	C556.328369,203.117157 556.730225,203.258072 557.075256,203.742844 
	C556.693726,203.905991 556.369019,203.725281 555.985413,203.260406 
z"/>
<path fill="#D9ECF2" opacity="1.000000" stroke="none" 
	d="
M601.872192,193.008270 
	C601.920288,192.774658 601.843811,192.467010 601.536743,192.367188 
	C601.450134,192.698715 601.597351,192.818466 601.872192,193.008270 
z"/>
<path fill="#D9ECF2" opacity="1.000000" stroke="none" 
	d="
M424.729523,181.977295 
	C424.884094,182.323746 424.756256,182.731903 424.272034,183.076492 
	C424.092804,182.688293 424.269958,182.363663 424.729523,181.977295 
z"/>
<path fill="#D9ECF2" opacity="1.000000" stroke="none" 
	d="
M425.730774,180.977005 
	C425.884918,181.323776 425.756561,181.731918 425.271912,182.075958 
	C425.093140,181.687363 425.270660,181.362869 425.730774,180.977005 
z"/>
<path fill="#D9ECF2" opacity="1.000000" stroke="none" 
	d="
M426.734772,179.981110 
	C426.884430,180.320557 426.753876,180.725632 426.269348,181.072144 
	C426.095093,180.691299 426.274841,180.369034 426.734772,179.981110 
z"/>
<path fill="#D9ECF2" opacity="1.000000" stroke="none" 
	d="
M427.726501,178.983124 
	C427.885681,179.322357 427.766418,179.728470 427.281311,180.074692 
	C427.093018,179.693207 427.270538,179.371613 427.726501,178.983124 
z"/>
<path fill="#D9ECF2" opacity="1.000000" stroke="none" 
	d="
M428.732605,177.977432 
	C428.887970,178.343933 428.762573,178.772278 428.276794,179.102661 
	C428.094910,178.682877 428.273376,178.361069 428.732605,177.977432 
z"/>
<path fill="#D9ECF2" opacity="1.000000" stroke="none" 
	d="
M435.728943,171.977051 
	C435.884033,172.324127 435.756409,172.732635 435.272095,173.077393 
	C435.092346,172.688599 435.269287,172.363556 435.728943,171.977051 
z"/>
<path fill="#DFF0F4" opacity="1.000000" stroke="none" 
	d="
M585.730591,423.981506 
	C585.887207,424.335114 585.767151,424.757843 585.279785,425.093750 
	C585.092896,424.688141 585.273438,424.369354 585.730591,423.981506 
z"/>
<path fill="#DFF0F4" opacity="1.000000" stroke="none" 
	d="
M580.823853,431.035278 
	C581.058899,431.114471 581.107422,431.316376 581.089722,431.822754 
	C580.894653,431.804138 580.765930,431.481079 580.823853,431.035278 
z"/>
<path fill="#DFF0F4" opacity="1.000000" stroke="none" 
	d="
M636.241455,452.016174 
	C636.082947,451.567627 636.206421,451.052460 636.703857,450.759460 
	C636.893005,451.304291 636.708252,451.626923 636.241455,452.016174 
z"/>
<path fill="#D9ECF2" opacity="1.000000" stroke="none" 
	d="
M444.752197,425.986084 
	C444.913239,426.367737 444.790283,426.814728 444.294769,427.145721 
	C444.104187,426.703644 444.286194,426.377563 444.752197,425.986084 
z"/>
<path fill="#DFF0F4" opacity="1.000000" stroke="none" 
	d="
M584.730042,424.981079 
	C584.887146,425.335449 584.767334,425.758484 584.280029,426.094055 
	C584.092651,425.687622 584.272888,425.368652 584.730042,424.981079 
z"/>
<path fill="#F6FBFC" opacity="1.000000" stroke="none" 
	d="
M584.984924,454.268799 
	C585.381592,454.093994 585.857910,454.188934 586.168518,454.689240 
	C585.690063,454.909241 585.377319,454.723907 584.984924,454.268799 
z"/>
<path fill="#D9ECF2" opacity="1.000000" stroke="none" 
	d="
M445.744934,424.979858 
	C445.911469,425.349365 445.787994,425.776520 445.292908,426.119751 
	C445.099152,425.703064 445.277008,425.370300 445.744934,424.979858 
z"/>
<path fill="#F6FBFC" opacity="1.000000" stroke="none" 
	d="
M587.988525,456.241943 
	C588.373169,456.105316 588.839905,456.239258 589.154297,456.734070 
	C588.691528,456.900818 588.381042,456.706635 587.988525,456.241943 
z"/>
<path fill="#D9ECF2" opacity="1.000000" stroke="none" 
	d="
M604.249756,329.022156 
	C604.096008,328.672180 604.234192,328.264008 604.726135,327.907715 
	C604.900513,328.294403 604.721130,328.629211 604.249756,329.022156 
z"/>
<path fill="#D9ECF2" opacity="1.000000" stroke="none" 
	d="
M446.745056,423.979736 
	C446.911591,424.349121 446.788239,424.776001 446.293549,425.118896 
	C446.099884,424.702332 446.277557,424.369812 446.745056,423.979736 
z"/>
<path fill="#7FCBD5" opacity="1.000000" stroke="none" 
	d="
M382.724030,421.131714 
	C382.980225,421.179016 382.540833,421.401520 382.540833,421.401520 
	C382.540833,421.401520 382.110321,421.253754 382.036377,421.105835 
	C382.130890,421.000092 382.299347,421.042267 382.724030,421.131714 
z"/>
<path fill="#D9ECF2" opacity="1.000000" stroke="none" 
	d="
M4.672019,346.042847 
	C4.918598,346.375641 4.826615,346.837433 4.372284,347.429871 
	C4.117777,347.097656 4.225617,346.634735 4.672019,346.042847 
z"/>
<path fill="#D9ECF2" opacity="1.000000" stroke="none" 
	d="
M5.740385,344.984131 
	C5.884816,345.315948 5.750260,345.716187 5.265405,346.065918 
	C5.097203,345.694458 5.279301,345.373505 5.740385,344.984131 
z"/>
<path fill="#DFF0F4" opacity="1.000000" stroke="none" 
	d="
M666.014832,523.750000 
	C665.639404,523.917847 665.197205,523.800964 664.860229,523.301270 
	C665.292969,523.100769 665.620483,523.283081 666.014832,523.750000 
z"/>
<path fill="#DFF0F4" opacity="1.000000" stroke="none" 
	d="
M667.014404,524.749695 
	C666.638977,524.917419 666.196716,524.800720 665.859985,524.301208 
	C666.292786,524.100708 666.620239,524.283020 667.014404,524.749695 
z"/>
<path fill="#DFF0F4" opacity="1.000000" stroke="none" 
	d="
M667.894775,526.054810 
	C667.459961,526.120728 667.044556,525.853088 666.804077,525.251221 
	C667.290710,525.185120 667.602356,525.453247 667.894775,526.054810 
z"/>
<path fill="#D9ECF2" opacity="1.000000" stroke="none" 
	d="
M602.249817,332.022339 
	C602.091797,331.649872 602.224731,331.220032 602.717651,330.877747 
	C602.898621,331.298523 602.719727,331.631714 602.249817,332.022339 
z"/>
<path fill="#159CB1" opacity="1.000000" stroke="none" 
	d="
M20.151756,339.207092 
	C20.034069,339.154816 20.499758,339.007782 20.740007,339.051422 
	C20.980257,339.095062 20.640377,339.269867 20.640377,339.269867 
	C20.640377,339.269867 20.269445,339.259399 20.151756,339.207092 
z"/>
<path fill="#D9ECF2" opacity="1.000000" stroke="none" 
	d="
M657.714844,682.890259 
	C654.948792,684.951050 651.815552,686.940002 648.311646,689.002319 
	C651.076599,686.989929 654.212158,684.904114 657.714844,682.890259 
z"/>
<path fill="#D9ECF2" opacity="1.000000" stroke="none" 
	d="
M641.768127,691.794800 
	C640.694824,692.604370 639.307068,693.224365 637.559387,693.852905 
	C638.617554,693.109375 640.035583,692.357300 641.768127,691.794800 
z"/>
<path fill="#D9ECF2" opacity="1.000000" stroke="none" 
	d="
M659.710144,681.065247 
	C659.589905,681.713684 659.132019,682.375732 658.314575,683.055908 
	C658.427551,682.409058 658.900024,681.744019 659.710144,681.065247 
z"/>
<path fill="#D9ECF2" opacity="1.000000" stroke="none" 
	d="
M644.160400,690.764282 
	C643.930603,691.313110 643.308105,691.672363 642.310852,692.049744 
	C642.546631,691.570190 643.157104,691.072510 644.160400,690.764282 
z"/>
<path fill="#D9ECF2" opacity="1.000000" stroke="none" 
	d="
M647.765137,688.739990 
	C647.591858,689.338196 647.105042,689.683472 646.280640,690.049805 
	C646.445923,689.542969 646.948792,689.015076 647.765137,688.739990 
z"/>
<path fill="#D9ECF2" opacity="1.000000" stroke="none" 
	d="
M645.704102,689.866089 
	C645.777710,690.294678 645.471436,690.619934 644.799927,690.969971 
	C644.731140,690.583984 645.027649,690.173340 645.704102,689.866089 
z"/>
<path fill="#D9ECF2" opacity="1.000000" stroke="none" 
	d="
M103.229073,626.854614 
	C75.933472,626.897034 48.637589,627.027039 21.342403,626.939575 
	C10.130408,626.903687 1.869243,618.215881 2.022269,607.164551 
	C2.172555,596.311096 10.009030,588.986938 21.533606,588.978455 
	C41.506668,588.963745 61.480156,589.047546 81.452629,588.937927 
	C89.419701,588.894165 97.384560,588.446594 105.906296,588.507385 
	C107.628815,589.399048 108.779633,590.001770 109.964569,590.527710 
	C119.889893,594.932617 124.289513,605.978271 119.829781,615.361389 
	C116.500221,622.366821 110.109612,624.968811 103.229073,626.854614 
z"/>
<path fill="#BED9E5" opacity="1.000000" stroke="none" 
	d="
M103.675232,626.873657 
	C110.109612,624.968811 116.500221,622.366821 119.829781,615.361389 
	C124.289513,605.978271 119.889893,594.932617 109.964569,590.527710 
	C108.779633,590.001770 107.628815,589.399048 106.343475,588.552124 
	C113.182144,588.409119 120.187706,588.078003 127.086029,588.788269 
	C138.557571,589.969299 144.784637,598.015564 144.104935,609.792847 
	C143.537643,619.622375 135.703583,626.787720 125.035797,626.982300 
	C118.067200,627.109497 111.093056,626.933044 103.675232,626.873657 
z"/>
<path fill="#7FCBD5" opacity="1.000000" stroke="none" 
	d="
M357.991882,458.458191 
	C354.699066,458.702759 351.248260,458.773926 347.345734,458.709198 
	C348.372589,458.377319 349.851166,458.181366 352.113098,457.975769 
	C354.257904,457.941589 355.619446,457.917023 356.980957,457.892456 
	C357.266785,458.020050 357.551117,458.150818 357.991882,458.458191 
z"/>
<path fill="#159CB1" opacity="1.000000" stroke="none" 
	d="
M356.992065,457.676270 
	C355.619446,457.917023 354.257904,457.941589 352.490112,457.924988 
	C353.481781,457.594055 354.879761,457.304260 356.650635,457.020996 
	C357.023529,457.027496 357.003204,457.460052 356.992065,457.676270 
z"/>
<path fill="#159CB1" opacity="1.000000" stroke="none" 
	d="
M70.950867,458.166992 
	C70.892677,458.302429 70.697205,458.350647 70.210831,458.317383 
	C70.197968,458.007751 70.495850,457.955688 70.950867,458.166992 
z"/>
<path fill="#188BA5" opacity="1.000000" stroke="none" 
	d="
M523.745239,458.052490 
	C502.689026,458.395203 481.297333,458.475250 459.450562,458.435669 
	C460.365234,457.878754 461.733398,457.066559 463.104980,457.060699 
	C482.087738,456.979889 501.070984,456.996674 520.054016,457.045837 
	C521.173218,457.048706 522.291199,457.530792 523.745239,458.052490 
z"/>
<path fill="#D9ECF2" opacity="1.000000" stroke="none" 
	d="
M385.228821,626.854980 
	C336.271362,626.899902 287.313934,626.947327 238.356476,626.987793 
	C227.199326,626.997009 216.037598,627.175903 204.886536,626.913391 
	C196.891022,626.725281 190.748489,622.705261 187.510941,615.471985 
	C183.982635,607.589111 185.982056,598.008362 192.584534,593.272095 
	C196.086945,590.759644 201.084534,589.171692 205.416519,589.151245 
	C261.867218,588.884766 318.319672,588.995483 374.771576,588.938171 
	C379.907715,588.932983 385.043365,588.423340 390.458313,588.349854 
	C391.423645,589.329346 391.960480,590.393311 392.818726,590.841248 
	C404.611420,596.994873 407.752594,610.600037 398.675079,620.013062 
	C395.375793,623.434326 389.777924,624.638977 385.228821,626.854980 
z"/>
<path fill="#BED9E5" opacity="1.000000" stroke="none" 
	d="
M385.674988,626.874268 
	C389.777924,624.638977 395.375793,623.434326 398.675079,620.013062 
	C407.752594,610.600037 404.611420,596.994873 392.818726,590.841248 
	C391.960480,590.393311 391.423645,589.329346 390.897125,588.397827 
	C397.951599,588.247803 404.846344,588.251770 412.167999,588.269653 
	C413.974152,589.151306 415.323730,590.070862 416.737274,590.878479 
	C427.227631,596.871277 429.870728,610.405090 422.338409,619.880920 
	C421.109436,621.427002 419.655579,622.794373 418.126282,624.506287 
	C407.533722,628.402039 396.757751,626.603882 385.674988,626.874268 
z"/>
</svg>